<svg data-v-fde0c5aa="" xmlns="http://www.w3.org/2000/svg" viewBox="0 0 300 300" class="iconLeftSlogan"><!----><defs data-v-fde0c5aa=""><!----></defs><rect data-v-fde0c5aa="" fill="#C8A987" x="0" y="0" width="300px" height="300px" class="logo-background-square"></rect><defs data-v-fde0c5aa=""><!----></defs><g data-v-fde0c5aa="" id="5914d8cb-2d5c-4a56-9dcb-d6b8b82512a3" fill="#ffffff" transform="matrix(2.356805164165576,0,0,2.356805164165576,106.40700382984438,116.91509379909436)"><path d="M6.52 5.78L6.52 5.78Q6.30 5.66 6.22 5.38L6.22 5.38L6.22 5.38Q6.15 5.10 6.12 4.63L6.12 4.63L6.12 4.63Q6.06 4.02 5.96 3.79L5.96 3.79L5.96 3.79Q4.96 3.79 4.22 3.94L4.22 3.94L4.22 3.94Q3.49 4.09 3.11 4.63L3.11 4.63L3.11 4.63Q3.07 4.73 2.84 5.17L2.84 5.17L2.84 5.17Q2.62 5.61 2.48 6.08L2.48 6.08L2.48 6.08Q2.35 6.54 2.35 6.96L2.35 6.96L2.35 6.96Q2.35 7.67 2.30 9.07L2.30 9.07L2.30 9.07Q2.28 9.42 2.27 9.95L2.27 9.95L2.27 9.95Q2.25 10.47 2.25 11.17L2.25 11.17L2.25 11.17Q2.25 11.69 2.18 12.32L2.18 12.32L2.18 12.32Q2.13 13.08 2.13 13.45L2.13 13.45L2.13 13.45Q2.13 14.10 2.25 14.59L2.25 14.59L2.25 14.59Q2.37 15.02 2.64 15.27L2.64 15.27L2.64 15.27Q2.91 15.51 3.25 15.63L3.25 15.63L3.25 15.63Q3.60 15.75 4.20 15.88L4.20 15.88L4.20 15.88Q4.66 15.97 4.82 16.02L4.82 16.02L4.82 16.02Q5.46 15.92 5.75 15.49L5.75 15.49L5.75 15.49Q6.05 15.06 6.12 14.49L6.12 14.49L6.12 14.49Q6.19 13.92 6.19 12.96L6.19 12.96L6.19 12.96Q6.19 12.33 6.23 11.75L6.23 11.75L6.23 11.75Q6.12 11.62 5.96 11.62L5.96 11.62L5.96 11.62Q5.87 11.62 5.78 11.67L5.78 11.67L5.78 11.67Q5.68 11.72 5.67 11.75L5.67 11.75L5.67 11.75Q5.54 12.00 5.52 12.50L5.52 12.50L5.52 12.50Q5.47 12.91 5.40 13.13L5.40 13.13L5.40 13.13Q5.33 13.34 5.10 13.45L5.10 13.45L5.10 13.45Q4.98 13.45 4.92 13.40L4.92 13.40L4.92 13.40Q4.86 13.34 4.76 13.20L4.76 13.20L4.76 13.20Q4.65 13.01 4.54 12.89L4.54 12.89L4.54 12.89Q4.54 12.25 4.58 11.76L4.58 11.76L4.58 11.76Q4.63 11.27 4.82 10.91L4.82 10.91L4.82 10.91Q4.97 10.91 5.17 10.89L5.17 10.89L5.17 10.89Q5.38 10.86 5.47 10.86L5.47 10.86L5.47 10.86Q5.78 10.82 6.09 10.82L6.09 10.82L6.09 10.82Q6.75 10.82 7.10 11.17L7.10 11.17L7.10 11.17Q7.22 11.30 7.22 11.47L7.22 11.47L7.22 11.47Q7.22 11.55 7.17 11.75L7.17 11.75L7.17 11.75Q7.10 11.91 7.10 12.04L7.10 12.04L7.10 12.04Q7.10 12.57 7.14 13.10L7.14 13.10L7.14 13.10Q7.17 13.78 7.17 14.07L7.17 14.07L7.17 14.07Q7.17 15.20 6.80 15.72L6.80 15.72L6.80 15.72Q6.80 15.85 6.69 15.97L6.69 15.97L6.69 15.97Q6.57 16.10 6.33 16.28L6.33 16.28L6.33 16.28Q6.15 16.41 5.96 16.59L5.96 16.59L5.96 16.59Q5.49 16.81 4.70 16.81L4.70 16.81L4.70 16.81Q3.95 16.81 3.40 16.59L3.40 16.59L3.40 16.59Q2.72 16.31 2.33 16.05L2.33 16.05L2.33 16.05Q1.95 15.79 1.65 15.44L1.65 15.44L1.65 15.44Q1.36 15.08 0.84 14.31L0.84 14.31L0.84 14.31Q0.27 12.64 0.27 11.17L0.27 11.17L0.27 9.48L0.27 9.48Q0.27 9.07 0.32 8.67L0.32 8.67L0.32 8.67Q0.38 8.26 0.50 7.53L0.50 7.53L0.50 7.53Q0.52 7.48 0.59 7.10L0.59 7.10L0.59 7.10Q0.66 6.72 0.80 6.38L0.80 6.38L0.80 6.38Q0.90 6.16 1.05 5.64L1.05 5.64L1.05 5.64Q1.18 5.19 1.30 4.90L1.30 4.90L1.30 4.90Q1.43 4.61 1.68 4.35L1.68 4.35L1.68 4.35Q1.83 4.20 1.97 3.92L1.97 3.92L1.97 3.92Q2.11 3.64 2.25 3.50L2.25 3.50L2.25 3.50Q2.38 3.50 2.51 3.44L2.51 3.44L2.51 3.44Q2.65 3.37 2.72 3.31L2.72 3.31L2.72 3.31Q2.80 3.25 2.83 3.22L2.83 3.22L2.83 3.22Q3.21 3.02 3.58 2.97L3.58 2.97L3.58 2.97Q3.96 2.93 4.54 2.93L4.54 2.93L4.54 2.93Q4.61 2.93 4.68 2.91L4.68 2.91L4.68 2.91Q4.75 2.90 4.83 2.88L4.83 2.88L4.83 2.88Q5.17 2.80 5.40 2.80L5.40 2.80L5.40 2.80Q5.71 2.80 5.96 2.93L5.96 2.93L5.96 2.93Q6.19 2.93 6.50 3.12L6.50 3.12L6.50 3.12Q6.80 3.30 6.80 3.50L6.80 3.50L6.80 3.50Q6.93 3.88 6.93 4.30L6.93 4.30L6.93 4.30Q6.93 4.76 6.80 5.19L6.80 5.19L6.80 5.19Q6.68 5.61 6.52 5.78L6.52 5.78ZM13.80 9.02L13.80 9.02Q14.20 9.52 14.41 10.26L14.41 10.26L14.41 10.26Q14.62 11.00 14.71 11.78L14.71 11.78L14.71 11.78Q14.80 12.56 14.87 13.78L14.87 13.78L14.87 13.78Q14.95 15.19 15.04 15.82L15.04 15.82L15.04 15.82Q15.34 15.82 15.48 15.87L15.48 15.87L15.48 15.87Q15.62 15.92 15.62 16.11L15.62 16.11L15.62 16.11Q15.62 16.80 14.62 16.80L14.62 16.80L14.62 16.80Q14.32 16.80 13.54 16.70L13.54 16.70L13.54 16.70Q13.36 16.52 13.31 16.30L13.31 16.30L13.31 16.21L13.31 16.21Q13.31 16.11 13.40 15.72L13.40 15.72L13.40 15.72Q13.44 15.51 13.49 15.23L13.49 15.23L13.49 15.23Q13.54 14.94 13.54 14.63L13.54 14.63L13.54 14.63Q13.54 14.20 13.47 13.83L13.47 13.83L13.47 13.83Q13.40 13.38 13.40 12.70L13.40 12.70L13.40 12.70Q13.37 11.87 13.29 11.36L13.29 11.36L13.29 11.36Q13.20 10.85 12.88 10.40L12.88 10.40L12.71 10.15L12.71 10.15Q12.52 9.83 12.29 9.60L12.29 9.60L12.29 9.60Q12.29 9.48 12.23 9.41L12.23 9.41L12.23 9.41Q12.17 9.34 12.01 9.24L12.01 9.24L12.01 9.24Q11.82 9.13 11.69 9.02L11.69 9.02L11.69 9.02Q11.40 9.02 11.25 9.07L11.25 9.07L11.25 9.07Q11.10 9.11 11.10 9.30L11.10 9.30L11.10 9.30Q10.96 10.01 10.96 10.88L10.96 10.88L10.96 10.88Q10.96 11.48 11.05 12.54L11.05 12.54L11.05 12.54Q11.10 13.47 11.10 13.80L11.10 13.80L11.10 13.80Q11.10 14.42 11.15 14.82L11.15 14.82L11.15 14.82Q11.20 15.22 11.38 15.62L11.38 15.62L11.38 15.62Q11.38 15.72 11.46 15.79L11.46 15.79L11.46 15.79Q11.54 15.85 11.69 15.92L11.69 15.92L11.69 15.92Q11.83 15.99 11.91 16.04L11.91 16.04L11.91 16.04Q11.98 16.10 11.98 16.20L11.98 16.20L11.98 16.20Q11.98 16.25 11.98 16.42L11.98 16.42L11.98 16.42Q11.98 16.59 11.93 16.66L11.93 16.66L11.93 16.66Q11.87 16.73 11.73 16.73L11.73 16.73L11.73 16.73Q11.48 16.73 11.14 16.69L11.14 16.69L11.14 16.69Q11.02 16.69 10.74 16.67L10.74 16.67L10.74 16.67Q10.46 16.65 10.25 16.65L10.25 16.65L10.25 16.65Q9.62 16.65 9.30 16.81L9.30 16.81L9.30 16.81Q8.92 16.81 8.74 16.79L8.74 16.79L8.74 16.79Q8.55 16.76 8.40 16.63L8.40 16.63L8.40 16.63Q8.25 16.49 8.09 16.20L8.09 16.20L8.09 16.20Q8.30 16.02 8.50 15.97L8.50 15.97L8.50 15.97Q8.69 15.92 8.99 15.92L8.99 15.92L8.99 10.81L8.99 10.81Q8.99 10.67 9.02 10.48L9.02 10.48L9.02 10.48Q9.04 10.29 9.06 10.21L9.06 10.21L9.06 10.21Q9.13 9.88 9.13 9.62L9.13 9.62L9.13 9.62Q9.13 9.30 8.99 9.02L8.99 9.02L8.99 9.02Q8.99 8.82 9.03 8.65L9.03 8.65L9.03 8.65Q9.09 8.29 9.09 8.23L9.09 8.23L9.09 8.23Q9.11 7.76 9.11 7.55L9.11 7.55L9.11 7.55Q9.11 7.11 9.06 6.22L9.06 6.22L9.06 6.22Q9.04 6.05 9.02 5.54L9.02 5.54L9.02 5.54Q8.99 5.03 8.99 4.51L8.99 4.51L8.99 4.51Q8.51 4.51 8.20 4.40L8.20 4.40L8.20 4.40Q7.90 4.30 7.90 4.07L7.90 4.07L7.90 4.07Q7.90 3.64 8.03 3.45L8.03 3.45L8.03 3.45Q8.16 3.26 8.41 3.22L8.41 3.22L8.41 3.22Q8.65 3.18 9.20 3.18L9.20 3.18L9.20 3.18Q9.35 3.18 9.55 3.09L9.55 3.09L9.55 3.09Q9.72 3.01 9.87 3.01L9.87 3.01L9.87 3.01Q10.71 2.87 11.49 2.87L11.49 2.87L11.49 2.87Q12.73 2.87 13.60 3.25L13.60 3.25L13.60 3.25Q14.48 3.63 14.69 4.51L14.69 4.51L14.69 4.51Q14.87 5.24 14.87 5.85L14.87 5.85L14.87 5.85Q14.87 6.47 14.69 6.90L14.69 6.90L14.69 6.90Q14.57 7.18 14.32 7.52L14.32 7.52L14.32 7.52Q14.06 7.85 13.80 8.11L13.80 8.11L13.50 8.41L13.50 8.41Q13.50 8.58 13.65 8.71L13.65 8.71L13.65 8.71Q13.80 8.86 13.80 9.02L13.80 9.02ZM10.82 3.93L10.82 3.93Q10.82 5.31 10.93 7.63L10.93 7.63L10.93 7.63Q10.93 7.78 11.17 7.78L11.17 7.78L11.17 7.78Q11.47 7.78 11.94 7.59L11.94 7.59L11.94 7.59Q12.42 7.39 12.60 7.21L12.60 7.21L12.60 7.21Q12.60 7.04 12.74 6.57L12.74 6.57L12.74 6.57Q12.85 6.22 12.88 6.02L12.88 6.02L12.88 6.02Q12.94 5.73 12.94 5.54L12.94 5.54L12.94 5.54Q12.94 5.40 12.91 5.22L12.91 5.22L12.91 5.22Q12.88 5.04 12.88 4.82L12.88 4.82L12.88 4.82Q12.88 4.56 12.77 4.40L12.77 4.40L12.77 4.40Q12.66 4.24 12.50 4.10L12.50 4.10L12.50 4.10Q12.35 3.96 12.29 3.91L12.29 3.91L10.82 3.93ZM27.78 3.37L27.78 3.37Q27.78 3.29 27.83 3.18L27.83 3.18L27.83 3.18Q27.89 3.07 28.08 3.07L28.08 3.07L28.08 3.07Q28.38 3.07 28.52 3.12L28.52 3.12L28.52 3.12Q28.66 3.16 28.66 3.37L28.66 3.37L28.66 3.37Q28.80 3.51 28.80 3.74L28.80 3.74L28.80 3.74Q28.80 3.91 28.71 4.21L28.71 4.21L28.71 4.21Q28.66 4.47 28.66 4.54L28.66 4.54L28.66 4.54Q28.62 4.63 28.46 5.01L28.46 5.01L28.46 5.01Q28.29 5.38 28.11 5.59L28.11 5.59L28.11 5.59Q27.92 5.80 27.71 5.80L27.71 5.80L27.71 5.80Q27.58 5.80 27.47 5.74L27.47 5.74L27.47 5.74Q27.34 5.61 27.34 5.36L27.34 5.36L27.34 5.36Q27.34 5.24 27.40 4.87L27.40 4.87L27.40 4.87Q27.47 4.38 27.47 4.26L27.47 4.26L27.47 4.26Q27.24 4.02 26.82 3.84L26.82 3.84L26.82 3.84Q26.40 3.65 25.98 3.65L25.98 3.65L25.98 3.65Q25.76 4.09 25.76 5.00L25.76 5.00L25.76 5.00Q25.76 5.91 25.98 6.36L25.98 6.36L25.98 6.36Q26.17 6.73 26.50 7.02L26.50 7.02L26.50 7.02Q26.82 7.31 27.40 7.70L27.40 7.70L27.40 7.70Q28.03 8.13 28.42 8.48L28.42 8.48L28.42 8.48Q28.81 8.82 29.09 9.31L29.09 9.31L29.09 9.31Q29.44 9.91 29.67 10.37L29.67 10.37L29.67 10.37Q29.89 10.81 30.00 11.33L30.00 11.33L30.00 11.33Q30.11 11.84 30.11 12.33L30.11 12.33L30.11 12.33Q30.11 13.17 29.98 13.76L29.98 13.76L29.98 13.76Q29.85 14.34 29.55 14.99L29.55 14.99L29.55 14.99Q29.22 15.72 28.66 16.14L28.66 16.14L28.66 16.14Q28.10 16.55 27.19 16.77L27.19 16.77L25.98 16.77L25.98 16.77Q25.61 16.77 25.08 16.37L25.08 16.37L25.08 16.37Q24.56 15.96 24.21 15.58L24.21 15.58L24.21 15.58Q23.77 14.77 23.77 13.87L23.77 13.87L23.77 13.87Q23.77 13.44 23.90 12.91L23.90 12.91L23.90 12.91Q23.74 12.91 23.59 13.06L23.59 13.06L23.59 13.06Q23.46 13.22 23.31 13.22L23.31 13.22L23.31 13.22Q23.10 13.01 23.05 12.80L23.05 12.80L23.05 12.80Q23.00 12.60 23.00 12.32L23.00 12.32L23.00 12.32Q23.48 12.15 24.11 12.05L24.11 12.05L24.11 12.05Q24.42 12.00 24.75 11.91L24.75 11.91L24.75 11.91Q25.09 11.83 25.40 11.70L25.40 11.70L25.40 11.70Q25.72 11.70 25.91 11.91L25.91 11.91L25.91 11.91Q26.11 12.12 26.11 12.43L26.11 12.43L26.11 12.43Q26.11 12.67 25.98 12.91L25.98 12.91L25.98 12.91Q25.69 12.91 25.49 12.96L25.49 12.96L25.49 12.96Q25.30 13.01 25.09 13.22L25.09 13.22L25.09 13.22Q24.78 13.52 24.78 14.17L24.78 14.17L24.78 14.17Q24.78 14.73 25.03 15.24L25.03 15.24L25.03 15.24Q25.27 15.75 25.68 15.89L25.68 15.89L25.68 15.89Q25.86 15.89 25.98 15.74L25.98 15.74L25.98 15.74Q26.00 15.72 26.08 15.65L26.08 15.65L26.08 15.65Q26.17 15.58 26.29 15.58L26.29 15.58L26.29 15.58Q27.27 15.09 27.78 14.05L27.78 14.05L27.78 14.05Q28.29 13.01 28.29 11.68L28.29 11.68L28.29 11.68Q28.29 10.81 28.08 9.93L28.08 9.93L28.08 9.93Q27.85 9.48 27.59 9.22L27.59 9.22L27.59 9.22Q27.33 8.96 26.88 8.72L26.88 8.72L26.88 8.72Q26.47 8.53 26.22 8.32L26.22 8.32L26.22 8.32Q25.97 8.12 25.68 7.83L25.68 7.83L25.68 7.83Q25.54 7.69 25.30 7.55L25.30 7.55L25.30 7.55Q24.93 7.34 24.68 7.07L24.68 7.07L24.68 7.07Q24.60 6.97 24.28 6.65L24.28 6.65L24.28 6.65Q23.95 6.33 23.77 6.03L23.77 6.03L23.77 6.03Q23.59 5.73 23.59 5.46L23.59 5.46L23.59 5.46Q23.52 5.25 23.52 4.97L23.52 4.97L23.52 4.97Q23.52 4.03 24.49 3.07L24.49 3.07L24.49 3.07Q24.60 3.07 24.72 3.02L24.72 3.02L24.72 3.02Q24.85 2.97 24.89 2.95L24.89 2.95L24.89 2.95Q25.28 2.76 25.68 2.76L25.68 2.76L25.68 2.76Q25.94 2.76 26.12 2.79L26.12 2.79L26.12 2.79Q26.31 2.83 26.57 2.91L26.57 2.91L27.19 3.07L27.19 3.07Q27.22 3.09 27.30 3.16L27.30 3.16L27.30 3.16Q27.38 3.23 27.51 3.30L27.51 3.30L27.51 3.30Q27.64 3.37 27.78 3.37L27.78 3.37ZM33.63 15.72L33.63 15.72Q34.12 15.72 34.43 15.84L34.43 15.84L34.43 15.84Q34.73 15.96 34.73 16.18L34.73 16.18L34.73 16.18Q34.73 16.37 34.51 16.60L34.51 16.60L34.51 16.60Q34.15 16.60 33.12 16.67L33.12 16.67L33.12 16.67Q32.40 16.73 32.09 16.73L32.09 16.73L32.09 16.73Q31.49 16.73 30.98 16.60L30.98 16.60L30.98 16.60Q30.95 16.58 30.88 16.49L30.88 16.49L30.88 16.49Q30.81 16.41 30.74 16.28L30.74 16.28L30.74 16.28Q30.67 16.16 30.67 16.02L30.67 16.02L30.67 16.02Q30.90 15.79 31.01 15.76L31.01 15.76L31.01 15.76Q31.12 15.72 31.56 15.72L31.56 15.72L31.56 15.72Q31.72 15.57 31.72 15.16L31.72 15.16L31.72 15.16Q31.72 15.01 31.70 14.70L31.70 14.70L31.70 14.70Q31.67 14.42 31.67 14.31L31.67 14.31L31.67 13.87L31.67 13.87Q31.67 12.56 31.71 11.45L31.71 11.45L31.71 11.45Q31.74 10.14 31.74 9.51L31.74 9.51L31.74 9.51Q31.74 9.14 31.75 8.95L31.75 8.95L31.77 8.12L31.77 8.12Q31.77 7.56 31.74 7.25L31.74 7.25L31.74 7.25Q31.71 6.89 31.71 6.78L31.71 6.78L31.71 6.72L31.71 6.72Q31.71 6.43 31.72 6.24L31.72 6.24L31.72 6.24Q31.75 5.61 31.74 5.03L31.74 5.03L31.75 4.58L31.75 4.58Q31.75 4.38 31.71 4.26L31.71 4.26L31.71 4.26Q31.67 4.14 31.54 4.10L31.54 4.10L31.54 4.10Q31.39 4.03 31.16 4.03L31.16 4.03L31.16 4.03Q31.01 4.02 30.92 3.99L30.92 3.99L30.92 3.99Q30.83 3.96 30.70 3.85L30.70 3.85L30.70 3.85Q30.42 3.70 30.42 3.54L30.42 3.54L30.42 3.54Q30.42 3.44 30.51 3.35L30.51 3.35L30.51 3.35Q30.59 3.25 30.71 3.14L30.71 3.14L30.71 3.14Q30.83 3.04 30.90 2.98L30.90 2.98L30.90 2.98Q31.98 2.79 33.57 2.79L33.57 2.79L35.08 2.80L35.08 2.80Q35.20 2.80 35.27 2.79L35.27 2.79L35.27 2.79Q35.35 2.77 35.41 2.77L35.41 2.77L35.41 2.77Q35.55 2.77 35.69 2.80L35.69 2.80L35.69 2.80Q36.50 2.93 37.14 3.88L37.14 3.88L37.14 3.88Q37.79 4.84 38.02 6.03L38.02 6.03L38.02 6.03Q38.02 6.92 37.98 7.45L37.98 7.45L37.98 7.45Q37.93 7.98 37.73 8.39L37.73 8.39L37.73 8.39Q37.58 8.85 37.25 9.23L37.25 9.23L37.25 9.23Q36.92 9.60 36.39 10.05L36.39 10.05L36.39 10.05Q35.97 10.43 35.97 10.43L35.97 10.43L35.97 10.43Q35.56 10.64 35.15 10.69L35.15 10.69L35.15 10.69Q34.73 10.74 33.92 10.74L33.92 10.74L33.92 10.74Q33.89 10.74 33.83 10.75L33.83 10.75L33.83 10.75Q33.77 10.77 33.70 10.84L33.70 10.84L33.70 10.84Q33.63 10.91 33.63 11.03L33.63 11.03L33.63 11.03Q33.61 11.16 33.62 11.44L33.62 11.44L33.62 11.44Q33.63 11.72 33.63 11.87L33.63 11.87L33.63 12.19L33.63 12.19Q33.63 12.71 33.56 13.37L33.56 13.37L33.56 13.37Q33.54 13.52 33.52 13.89L33.52 13.89L33.52 13.89Q33.49 14.25 33.49 14.55L33.49 14.55L33.49 14.55Q33.49 15.16 33.63 15.72L33.63 15.72ZM33.63 8.09L33.63 9.55L33.63 9.55Q33.75 9.69 33.95 9.76L33.95 9.76L33.95 9.76Q34.15 9.83 34.36 9.83L34.36 9.83L34.36 9.83Q34.59 9.83 34.76 9.73L34.76 9.73L34.76 9.73Q35.18 9.46 35.52 9.01L35.52 9.01L35.52 9.01Q35.85 8.55 35.97 8.09L35.97 8.09L35.97 8.09Q35.99 7.95 36.07 7.67L36.07 7.67L36.07 7.67Q36.15 7.38 36.16 7.09L36.16 7.09L36.16 7.09Q36.18 6.80 36.18 6.38L36.18 6.38L36.18 6.38Q36.18 5.74 36.04 5.09L36.04 5.09L36.04 5.09Q35.90 4.44 35.69 3.99L35.69 3.99L35.69 3.99Q35.57 3.99 35.45 3.94L35.45 3.94L35.45 3.94Q35.32 3.89 35.28 3.88L35.28 3.88L35.28 3.88Q34.89 3.68 34.51 3.68L34.51 3.68L33.63 3.68L33.63 3.68Q33.49 4.38 33.49 5.15L33.49 5.15L33.49 5.15Q33.49 5.53 33.52 5.99L33.52 5.99L33.52 5.99Q33.54 6.45 33.56 6.64L33.56 6.64L33.56 6.64Q33.63 7.45 33.63 8.09L33.63 8.09ZM41.43 3.85L41.43 3.85Q41.30 4.19 41.30 4.66L41.30 4.66L41.30 4.66Q41.30 5.04 41.37 5.50L41.37 5.50L41.37 5.50Q41.38 5.60 41.41 5.90L41.41 5.90L41.41 5.90Q41.44 6.20 41.43 6.44L41.43 6.44L41.43 6.44Q41.40 7.29 41.31 9.17L41.31 9.17L41.31 9.17Q41.24 10.77 41.19 12.49L41.19 12.49L41.19 12.49Q41.13 14.21 41.13 15.65L41.13 15.65L41.13 15.65Q41.27 15.79 41.58 15.95L41.58 15.95L41.58 15.95Q41.86 16.09 41.99 16.21L41.99 16.21L41.99 16.21Q41.99 16.34 41.93 16.40L41.93 16.40L41.93 16.40Q41.87 16.46 41.73 16.56L41.73 16.56L41.73 16.56Q41.57 16.66 41.43 16.80L41.43 16.80L41.43 16.80Q41.27 16.73 40.89 16.67L40.89 16.67L40.89 16.67Q40.70 16.66 40.24 16.66L40.24 16.66L40.24 16.66Q39.76 16.66 39.45 16.63L39.45 16.63L39.45 16.63Q39.13 16.60 38.84 16.51L38.84 16.51L38.84 16.51Q38.81 16.49 38.76 16.41L38.76 16.41L38.76 16.41Q38.71 16.32 38.71 16.21L38.71 16.21L38.71 16.21Q38.71 16.06 38.84 15.95L38.84 15.95L38.84 15.95Q38.84 15.85 38.88 15.83L38.88 15.83L38.88 15.83Q38.92 15.81 39.02 15.81L39.02 15.81L39.02 15.81Q39.14 15.81 39.20 15.79L39.20 15.79L39.20 15.79Q39.34 15.74 39.40 15.65L39.40 15.65L39.40 15.65Q39.52 15.53 39.52 15.29L39.52 15.29L39.52 15.29Q39.52 15.18 39.49 15.03L39.49 15.03L39.49 15.03Q39.47 14.88 39.45 14.83L39.45 14.83L39.45 14.83Q39.40 14.57 39.40 14.50L39.40 14.50L39.40 14.50Q39.40 14.07 39.42 13.23L39.42 13.23L39.44 12.00L39.44 12.00Q39.42 11.93 39.41 11.74L39.41 11.74L39.41 11.74Q39.40 11.55 39.40 11.33L39.40 11.33L39.40 8.74L39.40 3.85L39.40 3.85Q39.13 3.85 38.98 3.80L38.98 3.80L38.98 3.80Q38.84 3.75 38.84 3.56L38.84 3.56L38.84 2.98L38.84 2.98Q38.84 2.86 38.93 2.86L38.93 2.86L38.93 2.86Q38.98 2.86 39.21 2.92L39.21 2.92L39.21 2.92Q39.45 2.98 39.69 2.98L39.69 2.98L39.69 2.98Q39.84 2.98 40.35 2.93L40.35 2.93L40.35 2.93Q40.46 2.91 40.75 2.88L40.75 2.88L40.75 2.88Q41.05 2.86 41.27 2.86L41.27 2.86L41.27 2.86Q41.75 2.86 41.99 2.98L41.99 2.98L41.99 2.98Q42.10 3.09 42.10 3.26L42.10 3.26L42.10 3.26Q42.10 3.49 41.91 3.67L41.91 3.67L41.91 3.67Q41.72 3.85 41.43 3.85L41.43 3.85ZM49.88 3.67L49.88 3.67Q49.88 3.77 49.93 3.83L49.93 3.83L49.93 3.83Q49.98 3.89 50.04 3.95L50.04 3.95L50.04 3.95Q50.19 4.07 50.19 4.23L50.19 4.23L50.19 4.23Q50.19 4.89 50.13 5.29L50.13 5.29L50.13 5.29Q50.08 5.68 49.88 5.68L49.88 5.68L49.88 5.68Q49.64 5.68 49.57 5.49L49.57 5.49L49.57 5.49Q49.50 5.29 49.46 4.87L49.46 4.87L49.46 4.87Q49.43 4.35 49.31 4.23L49.31 4.23L49.31 4.23Q48.66 4.02 48.03 4.02L48.03 4.02L48.03 4.02Q47.42 4.02 46.98 4.23L46.98 4.23L46.98 4.23Q46.80 4.41 46.54 4.97L46.54 4.97L46.54 4.97Q46.28 5.50 46.10 5.68L46.10 5.68L46.10 5.68Q46.10 5.75 46.05 5.92L46.05 5.92L46.05 5.92Q45.99 6.09 45.82 6.27L45.82 6.27L45.82 6.27Q45.61 7.07 45.56 7.76L45.56 7.76L45.56 7.76Q45.51 8.46 45.51 9.77L45.51 9.77L45.51 11.51L45.51 11.51Q46.16 15.16 47.56 15.89L47.56 15.89L47.56 15.89Q47.78 16.00 48.06 16.00L48.06 16.00L48.06 16.00Q48.34 16.00 48.64 15.90L48.64 15.90L48.64 15.90Q48.93 15.79 49.31 15.58L49.31 15.58L49.31 15.58Q49.42 15.37 49.43 15.11L49.43 15.11L49.43 15.11Q49.45 14.94 49.45 14.56L49.45 14.56L49.45 14.56Q49.45 14.20 49.47 13.96L49.47 13.96L49.47 13.96Q49.49 13.73 49.59 13.54L49.59 13.54L49.59 13.54Q49.83 13.54 49.95 13.59L49.95 13.59L49.95 13.59Q50.08 13.64 50.20 13.73L50.20 13.73L50.20 13.73Q50.22 13.75 50.30 13.80L50.30 13.80L50.30 13.80Q50.37 13.85 50.47 13.85L50.47 13.85L50.47 15.89L50.47 15.89Q50.08 16.83 48.48 16.83L48.48 16.83L48.48 16.83Q47.88 16.83 47.27 16.73L47.27 16.73L47.27 16.73Q46.66 16.63 45.82 16.45L45.82 16.45L45.82 16.45Q45.47 16.13 45.29 15.99L45.29 15.99L45.29 15.99Q44.88 15.67 44.61 15.39L44.61 15.39L44.61 15.39Q44.34 15.12 44.07 14.70L44.07 14.70L44.07 14.70Q43.93 14.04 43.78 13.47L43.78 13.47L43.78 13.47Q43.48 12.28 43.34 11.45L43.34 11.45L43.34 11.45Q43.19 10.61 43.19 9.77L43.19 9.77L43.19 9.77Q43.27 9.32 43.41 8.43L43.41 8.43L43.41 8.43Q43.58 7.39 43.72 6.71L43.72 6.71L43.72 6.71Q43.86 6.03 44.07 5.40L44.07 5.40L44.07 5.40Q44.18 5.28 44.32 5.00L44.32 5.00L44.32 5.00Q44.42 4.70 44.63 4.52L44.63 4.52L44.63 4.52Q45.14 3.81 45.98 3.30L45.98 3.30L45.98 3.30Q46.83 2.79 47.84 2.79L47.84 2.79L47.84 2.79Q48.20 2.90 48.45 2.95L48.45 2.95L48.45 2.95Q49.00 3.11 49.29 3.24L49.29 3.24L49.29 3.24Q49.59 3.37 49.88 3.67L49.88 3.67ZM57.02 5.08L57.02 5.08Q56.95 4.98 56.90 4.82L56.90 4.82L56.90 4.82Q56.88 4.72 56.88 4.51L56.88 4.51L56.88 4.51Q56.88 4.28 56.85 4.16L56.85 4.16L56.85 4.16Q56.83 4.03 56.73 3.95L56.73 3.95L56.73 3.95Q56.45 3.79 56.15 3.65L56.15 3.65L56.15 3.65Q55.51 3.65 55.03 3.70L55.03 3.70L55.03 3.70Q54.54 3.75 54.17 3.95L54.17 3.95L54.17 3.95Q54.01 4.09 53.96 4.30L53.96 4.30L53.96 4.30Q53.91 4.52 53.91 4.90L53.91 4.90L53.91 4.90Q53.91 5.56 53.89 6.26L53.89 6.26L53.87 7.07L53.87 7.07Q53.87 7.28 53.94 7.91L53.94 7.91L53.94 7.91Q54.00 8.33 54.00 8.50L54.00 8.50L54.00 8.50Q54.00 8.83 53.87 9.09L53.87 9.09L53.87 9.09Q54.07 9.25 54.51 9.30L54.51 9.30L54.51 9.30Q54.95 9.35 55.58 9.35L55.58 9.35L55.58 9.35Q55.58 9.00 55.63 8.76L55.63 8.76L55.63 8.76Q55.68 8.51 55.87 8.51L55.87 8.51L55.87 8.51Q56.08 8.51 56.15 8.55L56.15 8.55L56.15 8.55Q56.22 8.58 56.45 8.79L56.45 8.79L56.45 8.79Q56.38 8.93 56.38 9.10L56.38 9.10L56.38 9.10Q56.36 9.17 56.36 9.34L56.36 9.34L56.36 9.34Q56.36 9.63 56.41 9.95L56.41 9.95L56.41 9.95Q56.43 10.35 56.43 10.51L56.43 10.51L56.43 10.51Q56.43 10.79 56.37 10.94L56.37 10.94L56.37 10.94Q56.31 11.09 56.15 11.09L56.15 11.09L56.15 11.09Q56.11 11.06 55.97 10.98L55.97 10.98L55.97 10.98Q55.83 10.89 55.71 10.77L55.71 10.77L55.71 10.77Q55.58 10.64 55.58 10.51L55.58 10.51L55.58 10.22L54.17 10.22L54.17 10.22Q54.01 10.67 54.01 11.41L54.01 11.41L54.01 11.41Q54.01 11.89 54.05 12.35L54.05 12.35L54.05 12.35Q54.08 12.91 54.08 13.12L54.08 13.12L54.08 13.12Q54.08 13.17 54.12 14.64L54.12 14.64L54.12 14.64Q54.17 15.26 54.17 15.65L54.17 15.65L54.17 15.65Q54.74 15.85 55.20 15.89L55.20 15.89L55.20 15.89Q55.65 15.93 56.45 15.93L56.45 15.93L56.45 15.93Q56.66 15.83 56.70 15.64L56.70 15.64L56.70 15.64Q56.74 15.51 56.74 15.23L56.74 15.23L56.74 15.23Q56.74 14.94 56.79 14.78L56.79 14.78L56.79 14.78Q56.84 14.62 57.02 14.52L57.02 14.52L57.02 14.52Q57.40 14.52 57.50 14.90L57.50 14.90L57.50 14.90Q57.60 15.29 57.60 15.93L57.60 15.93L57.60 15.93Q57.60 16.13 57.46 16.30L57.46 16.30L57.46 16.30Q57.33 16.48 57.02 16.80L57.02 16.80L55.58 16.80L55.58 16.80Q54.15 16.80 53.15 16.75L53.15 16.75L53.15 16.75Q52.15 16.70 51.02 16.51L51.02 16.51L51.02 15.93L52.16 15.93L52.16 15.93Q52.29 15.19 52.29 14.31L52.29 14.31L52.29 14.31Q52.29 13.82 52.23 12.78L52.23 12.78L52.23 12.78Q52.16 11.87 52.16 11.09L52.16 11.09L52.16 10.51L52.16 7.64L52.16 6.51L52.16 3.95L51.02 3.95L51.02 3.37L51.02 3.37Q51.60 3.22 52.78 3.08L52.78 3.08L52.78 3.08Q53.90 2.94 54.45 2.80L54.45 2.80L57.30 2.80L57.30 2.80Q57.33 2.83 57.40 2.91L57.40 2.91L57.40 2.91Q57.47 2.98 57.53 3.12L57.53 3.12L57.53 3.12Q57.60 3.25 57.60 3.37L57.60 3.37L57.60 3.37Q57.60 3.54 57.67 3.85L57.67 3.85L57.67 3.85Q57.74 4.34 57.74 4.44L57.74 4.44L57.74 4.44Q57.74 4.75 57.58 4.91L57.58 4.91L57.58 4.91Q57.43 5.08 57.02 5.08L57.02 5.08ZM62.83 3.37L62.83 3.37Q62.83 3.29 62.89 3.18L62.89 3.18L62.89 3.18Q62.94 3.07 63.14 3.07L63.14 3.07L63.14 3.07Q63.43 3.07 63.57 3.12L63.57 3.12L63.57 3.12Q63.71 3.16 63.71 3.37L63.71 3.37L63.71 3.37Q63.85 3.51 63.85 3.74L63.85 3.74L63.85 3.74Q63.85 3.91 63.77 4.21L63.77 4.21L63.77 4.21Q63.71 4.47 63.71 4.54L63.71 4.54L63.71 4.54Q63.67 4.63 63.51 5.01L63.51 5.01L63.51 5.01Q63.35 5.38 63.16 5.59L63.16 5.59L63.16 5.59Q62.97 5.80 62.76 5.80L62.76 5.80L62.76 5.80Q62.64 5.80 62.52 5.74L62.52 5.74L62.52 5.74Q62.40 5.61 62.40 5.36L62.40 5.36L62.40 5.36Q62.40 5.24 62.45 4.87L62.45 4.87L62.45 4.87Q62.52 4.38 62.52 4.26L62.52 4.26L62.52 4.26Q62.30 4.02 61.88 3.84L61.88 3.84L61.88 3.84Q61.46 3.65 61.04 3.65L61.04 3.65L61.04 3.65Q60.82 4.09 60.82 5.00L60.82 5.00L60.82 5.00Q60.82 5.91 61.04 6.36L61.04 6.36L61.04 6.36Q61.22 6.73 61.55 7.02L61.55 7.02L61.55 7.02Q61.88 7.31 62.45 7.70L62.45 7.70L62.45 7.70Q63.08 8.13 63.48 8.48L63.48 8.48L63.48 8.48Q63.87 8.82 64.15 9.31L64.15 9.31L64.15 9.31Q64.50 9.91 64.72 10.37L64.72 10.37L64.72 10.37Q64.95 10.81 65.06 11.33L65.06 11.33L65.06 11.33Q65.17 11.84 65.17 12.33L65.17 12.33L65.17 12.33Q65.17 13.17 65.04 13.76L65.04 13.76L65.04 13.76Q64.90 14.34 64.61 14.99L64.61 14.99L64.61 14.99Q64.27 15.72 63.71 16.14L63.71 16.14L63.71 16.14Q63.15 16.55 62.24 16.77L62.24 16.77L61.04 16.77L61.04 16.77Q60.66 16.77 60.14 16.37L60.14 16.37L60.14 16.37Q59.61 15.96 59.26 15.58L59.26 15.58L59.26 15.58Q58.83 14.77 58.83 13.87L58.83 13.87L58.83 13.87Q58.83 13.44 58.95 12.91L58.95 12.91L58.95 12.91Q58.80 12.91 58.65 13.06L58.65 13.06L58.65 13.06Q58.52 13.22 58.37 13.22L58.37 13.22L58.37 13.22Q58.16 13.01 58.11 12.80L58.11 12.80L58.11 12.80Q58.06 12.60 58.06 12.32L58.06 12.32L58.06 12.32Q58.53 12.15 59.16 12.05L59.16 12.05L59.16 12.05Q59.47 12.00 59.81 11.91L59.81 11.91L59.81 11.91Q60.14 11.83 60.45 11.70L60.45 11.70L60.45 11.70Q60.77 11.70 60.97 11.91L60.97 11.91L60.97 11.91Q61.17 12.12 61.17 12.43L61.17 12.43L61.17 12.43Q61.17 12.67 61.04 12.91L61.04 12.91L61.04 12.91Q60.75 12.91 60.55 12.96L60.55 12.96L60.55 12.96Q60.35 13.01 60.14 13.22L60.14 13.22L60.14 13.22Q59.84 13.52 59.84 14.17L59.84 14.17L59.84 14.17Q59.84 14.73 60.08 15.24L60.08 15.24L60.08 15.24Q60.33 15.75 60.73 15.89L60.73 15.89L60.73 15.89Q60.91 15.89 61.04 15.74L61.04 15.74L61.04 15.74Q61.05 15.72 61.14 15.65L61.14 15.65L61.14 15.65Q61.22 15.58 61.35 15.58L61.35 15.58L61.35 15.58Q62.33 15.09 62.84 14.05L62.84 14.05L62.84 14.05Q63.35 13.01 63.35 11.68L63.35 11.68L63.35 11.68Q63.35 10.81 63.14 9.93L63.14 9.93L63.14 9.93Q62.90 9.48 62.64 9.22L62.64 9.22L62.64 9.22Q62.38 8.96 61.94 8.72L61.94 8.72L61.94 8.72Q61.53 8.53 61.28 8.32L61.28 8.32L61.28 8.32Q61.03 8.12 60.73 7.83L60.73 7.83L60.73 7.83Q60.59 7.69 60.35 7.55L60.35 7.55L60.35 7.55Q59.99 7.34 59.74 7.07L59.74 7.07L59.74 7.07Q59.65 6.97 59.33 6.65L59.33 6.65L59.33 6.65Q59.01 6.33 58.83 6.03L58.83 6.03L58.83 6.03Q58.65 5.73 58.65 5.46L58.65 5.46L58.65 5.46Q58.58 5.25 58.58 4.97L58.58 4.97L58.58 4.97Q58.58 4.03 59.54 3.07L59.54 3.07L59.54 3.07Q59.65 3.07 59.78 3.02L59.78 3.02L59.78 3.02Q59.91 2.97 59.95 2.95L59.95 2.95L59.95 2.95Q60.34 2.76 60.73 2.76L60.73 2.76L60.73 2.76Q61.00 2.76 61.18 2.79L61.18 2.79L61.18 2.79Q61.36 2.83 61.63 2.91L61.63 2.91L62.24 3.07L62.24 3.07Q62.27 3.09 62.36 3.16L62.36 3.16L62.36 3.16Q62.44 3.23 62.57 3.30L62.57 3.30L62.57 3.30Q62.69 3.37 62.83 3.37L62.83 3.37Z"></path></g><defs data-v-fde0c5aa=""><!----></defs><g data-v-fde0c5aa="" id="b12717e6-9c32-4fe7-b506-642d826e176b" stroke="none" fill="#FFFFFF" transform="matrix(2.685823786210181,0,0,2.685823786210181,32.15063352098365,114.46834231697471)"><path d="M19.63 2.127c-.295.002-.594.05-.889.15a2.832 2.832 0 0 0-1.903 2.916.498.498 0 0 0-.288.144c-.102.117-.108.24-.097.372.012.13.051.282.116.473a3.365 3.365 0 0 0 2.787 2.258 22.81 22.81 0 0 0 1.327 2.946c.266.484.532.907.784 1.211.126.153.246.276.386.368.139.093.351.174.564.1.211-.072.29-.228.334-.371a1.69 1.69 0 0 0 .058-.497c0-.38-.065-.863-.16-1.397-.184-1.036-.487-2.244-.7-3.164a3.283 3.283 0 0 0 .92-3.506 2.018 2.018 0 0 0-.197-.445c-.073-.114-.163-.225-.348-.267a.52.52 0 0 0-.289.02 2.846 2.846 0 0 0-2.406-1.311zm-13.293.1a2.848 2.848 0 0 0-2.406 1.312.518.518 0 0 0-.289-.02.538.538 0 0 0-.348.268 2.022 2.022 0 0 0-.196.444 3.283 3.283 0 0 0 .92 3.507c-.214.92-.516 2.127-.7 3.163-.096.534-.16 1.017-.16 1.397 0 .19.013.353.057.497.044.143.122.3.333.372.213.073.427-.008.566-.1.14-.093.26-.216.386-.368.252-.305.517-.728.784-1.213A22.824 22.824 0 0 0 6.61 8.541a3.365 3.365 0 0 0 2.787-2.257c.064-.192.102-.343.114-.474.011-.13.006-.254-.095-.37a.501.501 0 0 0-.289-.146 2.832 2.832 0 0 0-2.79-3.067zm13.25.395a2.326 2.326 0 0 1 2.01 1.187c-.235.292-.558.672-.902 1.003-.117-.297-.221-.597-.403-.892a2.077 2.077 0 0 0-.47-.56.927.927 0 0 0-.332-.173.778.778 0 0 0-.429.008c-.296.097-.414.335-.469.565-.055.23-.055.49-.034.759.034.409.126.745.202 1.044-.48-.03-.95-.172-1.34-.287-.172-1.141.471-2.196 1.479-2.539a2.15 2.15 0 0 1 .688-.115zm-13.207.1c.23.001.463.039.688.115 1.008.343 1.651 1.4 1.478 2.54-.388.115-.86.258-1.34.287.076-.299.169-.635.202-1.044.022-.268.021-.53-.034-.76-.055-.23-.172-.467-.468-.563a.774.774 0 0 0-.43-.01.934.934 0 0 0-.333.173 2.08 2.08 0 0 0-.47.56c-.182.296-.285.597-.402.894-.345-.331-.667-.71-.902-1.003a2.326 2.326 0 0 1 2.01-1.188zm12.91.913l.015.004c.019.005.06.023.112.063.103.08.233.24.351.431.238.385.443.9.555 1.234a.293.239 0 0 0 .47.121c.676-.452 1.063-1.125 1.324-1.453.027-.034.039-.042.062-.068.036.068.077.148.124.288.399 1.187-.006 2.448-.873 3.158a.293.239 0 0 0-.08.213c.216.934.533 2.195.72 3.241.092.523.152.994.152 1.33 0 .158-.016.28-.038.36a1.427 1.427 0 0 1-.23-.227c-.217-.262-.476-.67-.735-1.14a22.76 22.76 0 0 1-1.358-3.013.293.239 0 0 0-.26-.171c-1.058-.067-2.075-.788-2.466-1.95a1.86 1.86 0 0 1-.095-.377c.036.008.052.008.105.023.4.117 1.147.448 1.997.368a.293.239 0 0 0 .251-.293c-.074-.251-.209-.8-.249-1.29a2.19 2.19 0 0 1 .024-.637c.038-.16.1-.208.11-.212l.012-.003zm-12.613.101l.01.005V3.74c.01.004.074.052.112.211.039.16.043.392.023.637-.04.49-.175 1.04-.25 1.29a.293.239 0 0 0 .253.293c.85.08 1.596-.25 1.996-.368.053-.015.07-.015.106-.023a1.845 1.845 0 0 1-.095.377c-.39 1.163-1.409 1.884-2.467 1.95a.293.239 0 0 0-.259.172c-.312.873-.839 2.07-1.357 3.012-.26.47-.52.879-.737 1.14a1.434 1.434 0 0 1-.23.227 1.385 1.385 0 0 1-.038-.36c0-.335.06-.806.154-1.329.186-1.046.502-2.307.717-3.242a.293.239 0 0 0-.08-.212c-.866-.71-1.27-1.971-.871-3.158.047-.14.087-.22.123-.288.023.025.036.033.064.067.26.328.646 1.001 1.323 1.454a.293.239 0 0 0 .469-.12c.112-.336.318-.85.555-1.235.119-.192.25-.351.352-.431a.355.355 0 0 1 .112-.063l.015-.005zm6.095 4.715a.293.239 0 0 0-.244.106s-1.43 1.725-1.43 3.883c0 .463.058.885.153 1.27a5.467 5.467 0 0 0-1.004-.679c-.978-.51-2.026-.646-2.83-.653-.803-.007-1.362.113-1.362.113a.293.239 0 0 0-.205.31s.847 2.06 2.803 3.082c.478.25.973.41 1.448.508-.475.1-.97.258-1.448.508C6.697 17.92 5.85 19.98 5.85 19.98a.293.239 0 0 0 .205.31s2.236.482 4.192-.54c.375-.195.709-.43 1.004-.68a5.29 5.29 0 0 0-.153 1.27c0 2.158 1.43 3.885 1.43 3.885a.293.239 0 0 0 .488 0s1.43-1.727 1.43-3.885c0-.449-.063-.878-.16-1.277.296.253.633.49 1.011.687 1.957 1.022 4.192.54 4.192.54a.293.239 0 0 0 .204-.31s-.846-2.06-2.802-3.082a5.583 5.583 0 0 0-1.449-.508c.475-.098.97-.258 1.449-.508 1.956-1.021 2.802-3.083 2.802-3.083a.293.239 0 0 0-.204-.31s-.558-.12-1.362-.112c-.803.007-1.851.142-2.83.653a5.473 5.473 0 0 0-1.012.687c.098-.399.16-.828.16-1.278 0-2.158-1.43-3.883-1.43-3.883a.293.239 0 0 0-.243-.106zm0 .76c.325.454 1.087 1.607 1.087 3.23 0 .872-.257 1.681-.548 2.312-.23.302-.408.585-.539.814a7.403 7.403 0 0 0-.505-.768c-.32-.648-.583-1.4-.583-2.359 0-1.622.763-2.775 1.088-3.228zm0 2.035a.293.239 0 0 0-.293.238v2.11a.293.239 0 0 0 .293.237.293.239 0 0 0 .294-.238v-2.109a.293.239 0 0 0-.294-.238zm-5.521 1.611h.172c.718.008 1.65.128 2.507.575 1.492.779 2.208 2.163 2.4 2.557-.472.073-1.906.251-3.36-.508-1.492-.779-2.208-2.164-2.4-2.557.17-.026.312-.062.68-.067zm10.869 0c.501-.005.659.037.853.067-.192.393-.907 1.778-2.4 2.557-1.453.76-2.887.582-3.36.509.08-.16.247-.488.518-.871a.293.239 0 0 0 .077-.087l.024-.053c.393-.524.973-1.124 1.782-1.547.857-.447 1.788-.567 2.506-.575zm-9.523.92a.293.239 0 0 0-.057.005.293.239 0 0 0-.184.104.293.239 0 0 0 .089.33l1.868.975a.293.239 0 0 0 .404-.072.293.239 0 0 0-.088-.33l-1.868-.975a.293.239 0 0 0-.164-.038zm8.349 0a.293.239 0 0 0-.164.037l-1.868.976a.293.239 0 0 0-.088.329.293.239 0 0 0 .405.072l1.868-.976a.293.239 0 0 0 .088-.33.293.239 0 0 0-.184-.104.293.239 0 0 0-.057-.005zm-5.47 2.949c.501-.006.66.037.853.066-.191.394-.907 1.779-2.4 2.558-1.453.76-2.887.582-3.359.508.192-.393.907-1.777 2.4-2.556.856-.448 1.788-.568 2.506-.576zm2.419 0h.172c.718.008 1.65.128 2.507.576 1.492.779 2.208 2.163 2.4 2.556-.473.074-1.905.251-3.36-.508-.809-.423-1.389-1.022-1.782-1.547l-.024-.053a.293.239 0 0 0-.077-.087 6.266 6.266 0 0 1-.517-.87c.17-.027.312-.062.68-.067zm-1.123.489c.131.23.31.513.54.815.29.63.547 1.438.547 2.311 0 1.621-.762 2.774-1.087 3.228-.325-.454-1.088-1.607-1.088-3.228 0-.958.263-1.71.584-2.358.213-.285.38-.55.504-.768zm-2.296.339a.293.239 0 0 0-.163.037l-1.868.976a.293.239 0 0 0-.089.33.293.239 0 0 0 .405.071l1.868-.975a.293.239 0 0 0 .088-.33.293.239 0 0 0-.184-.104.293.239 0 0 0-.057-.005zm4.591 0a.293.239 0 0 0-.057.005.293.239 0 0 0-.184.104.293.239 0 0 0 .088.33l1.868.975a.293.239 0 0 0 .405-.072.293.239 0 0 0-.088-.329l-1.868-.976a.293.239 0 0 0-.164-.037zm-2.295 1.396a.293.239 0 0 0-.293.24v2.108a.293.239 0 0 0 .293.239.293.239 0 0 0 .294-.239V19.19a.293.239 0 0 0-.294-.239z" color="#000" paint-order="fill markers stroke" stroke-width=".769"></path></g><defs data-v-fde0c5aa=""><!----></defs><g data-v-fde0c5aa="" id="d66e5a41-89f1-400c-8976-c73adc81c4b1" fill="#ffffff" transform="matrix(0.2852551610252045,0,0,0.2852551610252045,106.80657945356212,164.95987470462902)"><path d="M3.35 12.07L3.35 10.98L7.71 10.98L7.71 15.68L6.62 15.68L6.62 14.50L6.45 14.50L6.45 14.50Q6.22 15.12 5.61 15.50L5.61 15.50L5.61 15.50Q5.01 15.88 4.21 15.88L4.21 15.88L4.21 15.88Q2.63 15.88 1.73 14.85L1.73 14.85L1.73 14.85Q0.83 13.83 0.83 11.87L0.83 11.87L0.83 9.69L0.83 9.69Q0.83 7.78 1.74 6.73L1.74 6.73L1.74 6.73Q2.65 5.68 4.27 5.68L4.27 5.68L4.27 5.68Q5.11 5.68 5.75 5.96L5.75 5.96L5.75 5.96Q6.40 6.23 6.83 6.71L6.83 6.71L6.83 6.71Q7.27 7.20 7.49 7.85L7.49 7.85L7.49 7.85Q7.71 8.50 7.71 9.24L7.71 9.24L7.71 9.41L6.54 9.41L6.54 9.24L6.54 9.24Q6.54 8.76 6.41 8.32L6.41 8.32L6.41 8.32Q6.27 7.87 6.00 7.53L6.00 7.53L6.00 7.53Q5.73 7.18 5.30 6.98L5.30 6.98L5.30 6.98Q4.87 6.78 4.27 6.78L4.27 6.78L4.27 6.78Q3.14 6.78 2.57 7.60L2.57 7.60L2.57 7.60Q2.00 8.43 2.00 9.77L2.00 9.77L2.00 11.79L2.00 11.79Q2.00 13.23 2.57 14.01L2.57 14.01L2.57 14.01Q3.14 14.78 4.30 14.78L4.30 14.78L4.30 14.78Q5.35 14.78 5.94 14.11L5.94 14.11L5.94 14.11Q6.54 13.44 6.54 12.24L6.54 12.24L6.54 12.07L3.35 12.07ZM22.92 12.15L22.92 15.68L21.74 15.68L21.74 12.40L21.74 12.40Q21.74 12.04 21.57 11.84L21.57 11.84L21.57 11.84Q21.41 11.65 20.99 11.65L20.99 11.65L17.93 11.65L17.93 15.68L16.76 15.68L16.76 5.88L20.26 5.88L20.26 5.88Q21.01 5.88 21.57 6.10L21.57 6.10L21.57 6.10Q22.13 6.31 22.50 6.68L22.50 6.68L22.50 6.68Q22.88 7.04 23.06 7.53L23.06 7.53L23.06 7.53Q23.25 8.01 23.25 8.54L23.25 8.54L23.25 8.96L23.25 8.96Q23.25 9.51 22.95 10.05L22.95 10.05L22.95 10.05Q22.65 10.60 22.02 10.89L22.02 10.89L22.02 11.06L22.02 11.06Q22.44 11.13 22.68 11.40L22.68 11.40L22.68 11.40Q22.92 11.66 22.92 12.15L22.92 12.15ZM17.93 6.97L17.93 10.56L20.12 10.56L20.12 10.56Q21.11 10.56 21.59 10.13L21.59 10.13L21.59 10.13Q22.08 9.70 22.08 8.88L22.08 8.88L22.08 8.62L22.08 8.62Q22.08 7.88 21.59 7.43L21.59 7.43L21.59 7.43Q21.11 6.97 20.12 6.97L20.12 6.97L17.93 6.97ZM53.30 9.21L53.30 8.71L53.30 8.71Q53.30 8.23 53.11 7.87L53.11 7.87L53.11 7.87Q52.92 7.50 52.60 7.27L52.60 7.27L52.60 7.27Q52.28 7.03 51.86 6.90L51.86 6.90L51.86 6.90Q51.44 6.78 50.97 6.78L50.97 6.78L50.97 6.78Q50.57 6.78 50.20 6.88L50.20 6.88L50.20 6.88Q49.84 6.99 49.55 7.18L49.55 7.18L49.55 7.18Q49.27 7.38 49.10 7.66L49.10 7.66L49.10 7.66Q48.93 7.95 48.93 8.33L48.93 8.33L48.93 8.41L48.93 8.41Q48.93 8.82 49.10 9.11L49.10 9.11L49.10 9.11Q49.27 9.39 49.59 9.60L49.59 9.60L49.59 9.60Q49.92 9.80 50.41 9.93L50.41 9.93L50.41 9.93Q50.90 10.07 51.56 10.16L51.56 10.16L51.56 10.16Q53.10 10.40 53.83 11.07L53.83 11.07L53.83 11.07Q54.56 11.73 54.56 12.85L54.56 12.85L54.56 13.02L54.56 13.02Q54.56 13.65 54.34 14.17L54.34 14.17L54.34 14.17Q54.12 14.70 53.70 15.08L53.70 15.08L53.70 15.08Q53.27 15.46 52.64 15.67L52.64 15.67L52.64 15.67Q52.01 15.88 51.18 15.88L51.18 15.88L51.18 15.88Q50.25 15.88 49.52 15.60L49.52 15.60L49.52 15.60Q48.80 15.33 48.32 14.85L48.32 14.85L48.32 14.85Q47.84 14.36 47.59 13.71L47.59 13.71L47.59 13.71Q47.33 13.06 47.33 12.29L47.33 12.29L47.33 11.87L48.51 11.87L48.51 12.21L48.51 12.21Q48.51 13.50 49.22 14.14L49.22 14.14L49.22 14.14Q49.92 14.78 51.18 14.78L51.18 14.78L51.18 14.78Q52.28 14.78 52.83 14.30L52.83 14.30L52.83 14.30Q53.38 13.82 53.38 13.02L53.38 13.02L53.38 12.94L53.38 12.94Q53.38 12.17 52.81 11.76L52.81 11.76L52.81 11.76Q52.25 11.35 50.97 11.17L50.97 11.17L50.97 11.17Q50.23 11.07 49.64 10.87L49.64 10.87L49.64 10.87Q49.04 10.67 48.62 10.34L48.62 10.34L48.62 10.34Q48.20 10.01 47.98 9.55L47.98 9.55L47.98 9.55Q47.75 9.09 47.75 8.46L47.75 8.46L47.75 8.29L47.75 8.29Q47.75 7.71 47.99 7.24L47.99 7.24L47.99 7.24Q48.23 6.76 48.66 6.41L48.66 6.41L48.66 6.41Q49.08 6.06 49.68 5.87L49.68 5.87L49.68 5.87Q50.27 5.68 50.99 5.68L50.99 5.68L50.99 5.68Q51.81 5.68 52.47 5.92L52.47 5.92L52.47 5.92Q53.12 6.16 53.56 6.56L53.56 6.56L53.56 6.56Q54.01 6.96 54.24 7.50L54.24 7.50L54.24 7.50Q54.47 8.04 54.47 8.62L54.47 8.62L54.47 9.21L53.30 9.21ZM66.96 11.65L64.64 11.65L64.64 15.68L63.46 15.68L63.46 5.88L66.96 5.88L66.96 5.88Q67.72 5.88 68.28 6.10L68.28 6.10L68.28 6.10Q68.84 6.31 69.21 6.68L69.21 6.68L69.21 6.68Q69.58 7.04 69.77 7.53L69.77 7.53L69.77 7.53Q69.96 8.01 69.96 8.54L69.96 8.54L69.96 8.96L69.96 8.96Q69.96 9.49 69.77 9.98L69.77 9.98L69.77 9.98Q69.58 10.47 69.20 10.84L69.20 10.84L69.20 10.84Q68.82 11.21 68.26 11.43L68.26 11.43L68.26 11.43Q67.70 11.65 66.96 11.65L66.96 11.65ZM64.64 6.97L64.64 10.56L66.82 10.56L66.82 10.56Q68.78 10.56 68.78 8.88L68.78 8.88L68.78 8.62L68.78 8.62Q68.78 7.88 68.30 7.43L68.30 7.43L68.30 7.43Q67.82 6.97 66.82 6.97L66.82 6.97L64.64 6.97ZM79.02 6.97L79.02 5.88L85.23 5.88L85.23 6.97L82.71 6.97L82.71 14.59L85.23 14.59L85.23 15.68L79.02 15.68L79.02 14.59L81.54 14.59L81.54 6.97L79.02 6.97ZM97.75 14.78L97.75 14.78L97.75 14.78Q98.35 14.78 98.78 14.58L98.78 14.58L98.78 14.58Q99.20 14.38 99.48 14.04L99.48 14.04L99.48 14.04Q99.75 13.69 99.88 13.25L99.88 13.25L99.88 13.25Q100.02 12.81 100.02 12.32L100.02 12.32L100.02 12.15L101.19 12.15L101.19 12.32L101.19 12.32Q101.19 13.06 100.97 13.71L100.97 13.71L100.97 13.71Q100.74 14.36 100.31 14.85L100.31 14.85L100.31 14.85Q99.88 15.33 99.23 15.60L99.23 15.60L99.23 15.60Q98.59 15.88 97.75 15.88L97.75 15.88L97.75 15.88Q96.12 15.88 95.21 14.85L95.21 14.85L95.21 14.85Q94.30 13.83 94.30 11.87L94.30 11.87L94.30 9.69L94.30 9.69Q94.30 7.78 95.21 6.73L95.21 6.73L95.21 6.73Q96.12 5.68 97.75 5.68L97.75 5.68L97.75 5.68Q98.59 5.68 99.23 5.96L99.23 5.96L99.23 5.96Q99.88 6.23 100.31 6.71L100.31 6.71L100.31 6.71Q100.74 7.20 100.97 7.85L100.97 7.85L100.97 7.85Q101.19 8.50 101.19 9.24L101.19 9.24L101.19 9.41L100.02 9.41L100.02 9.24L100.02 9.24Q100.00 8.76 99.87 8.32L99.87 8.32L99.87 8.32Q99.74 7.87 99.46 7.53L99.46 7.53L99.46 7.53Q99.19 7.18 98.77 6.98L98.77 6.98L98.77 6.98Q98.35 6.78 97.75 6.78L97.75 6.78L97.75 6.78Q96.61 6.78 96.05 7.60L96.05 7.60L96.05 7.60Q95.48 8.43 95.48 9.77L95.48 9.77L95.48 11.79L95.48 11.79Q95.48 13.23 96.05 14.01L96.05 14.01L96.05 14.01Q96.61 14.78 97.75 14.78ZM110.29 15.68L110.29 5.88L116.23 5.88L116.23 6.97L111.47 6.97L111.47 10.22L116.14 10.22L116.14 11.31L111.47 11.31L111.47 14.59L116.31 14.59L116.31 15.68L110.29 15.68ZM131.14 9.21L131.14 8.71L131.14 8.71Q131.14 8.23 130.95 7.87L130.95 7.87L130.95 7.87Q130.76 7.50 130.44 7.27L130.44 7.27L130.44 7.27Q130.12 7.03 129.70 6.90L129.70 6.90L129.70 6.90Q129.28 6.78 128.81 6.78L128.81 6.78L128.81 6.78Q128.41 6.78 128.04 6.88L128.04 6.88L128.04 6.88Q127.68 6.99 127.39 7.18L127.39 7.18L127.39 7.18Q127.11 7.38 126.94 7.66L126.94 7.66L126.94 7.66Q126.77 7.95 126.77 8.33L126.77 8.33L126.77 8.41L126.77 8.41Q126.77 8.82 126.94 9.11L126.94 9.11L126.94 9.11Q127.11 9.39 127.44 9.60L127.44 9.60L127.44 9.60Q127.76 9.80 128.25 9.93L128.25 9.93L128.25 9.93Q128.74 10.07 129.40 10.16L129.40 10.16L129.40 10.16Q130.94 10.40 131.67 11.07L131.67 11.07L131.67 11.07Q132.40 11.73 132.40 12.85L132.40 12.85L132.40 13.02L132.40 13.02Q132.40 13.65 132.18 14.17L132.18 14.17L132.18 14.17Q131.96 14.70 131.54 15.08L131.54 15.08L131.54 15.08Q131.11 15.46 130.48 15.67L130.48 15.67L130.48 15.67Q129.85 15.88 129.02 15.88L129.02 15.88L129.02 15.88Q128.09 15.88 127.36 15.60L127.36 15.60L127.36 15.60Q126.64 15.33 126.16 14.85L126.16 14.85L126.16 14.85Q125.68 14.36 125.43 13.71L125.43 13.71L125.43 13.71Q125.17 13.06 125.17 12.29L125.17 12.29L125.17 11.87L126.35 11.87L126.35 12.21L126.35 12.21Q126.35 13.50 127.06 14.14L127.06 14.14L127.06 14.14Q127.76 14.78 129.02 14.78L129.02 14.78L129.02 14.78Q130.12 14.78 130.67 14.30L130.67 14.30L130.67 14.30Q131.22 13.82 131.22 13.02L131.22 13.02L131.22 12.94L131.22 12.94Q131.22 12.17 130.66 11.76L130.66 11.76L130.66 11.76Q130.09 11.35 128.81 11.17L128.81 11.17L128.81 11.17Q128.07 11.07 127.48 10.87L127.48 10.87L127.48 10.87Q126.88 10.67 126.46 10.34L126.46 10.34L126.46 10.34Q126.04 10.01 125.82 9.55L125.82 9.55L125.82 9.55Q125.59 9.09 125.59 8.46L125.59 8.46L125.59 8.29L125.59 8.29Q125.59 7.71 125.83 7.24L125.83 7.24L125.83 7.24Q126.07 6.76 126.50 6.41L126.50 6.41L126.50 6.41Q126.92 6.06 127.52 5.87L127.52 5.87L127.52 5.87Q128.11 5.68 128.83 5.68L128.83 5.68L128.83 5.68Q129.65 5.68 130.31 5.92L130.31 5.92L130.31 5.92Q130.96 6.16 131.40 6.56L131.40 6.56L131.40 6.56Q131.85 6.96 132.08 7.50L132.08 7.50L132.08 7.50Q132.31 8.04 132.31 8.62L132.31 8.62L132.31 9.21L131.14 9.21ZM156.52 11.87L156.52 9.69L156.52 9.69Q156.52 7.78 157.43 6.73L157.43 6.73L157.43 6.73Q158.34 5.68 159.96 5.68L159.96 5.68L159.96 5.68Q161.59 5.68 162.50 6.73L162.50 6.73L162.50 6.73Q163.41 7.78 163.41 9.69L163.41 9.69L163.41 11.87L163.41 11.87Q163.41 13.83 162.50 14.85L162.50 14.85L162.50 14.85Q161.59 15.88 159.96 15.88L159.96 15.88L159.96 15.88Q158.34 15.88 157.43 14.85L157.43 14.85L157.43 14.85Q156.52 13.83 156.52 11.87L156.52 11.87ZM159.96 14.78L159.96 14.78L159.96 14.78Q161.10 14.78 161.67 14.01L161.67 14.01L161.67 14.01Q162.23 13.23 162.23 11.79L162.23 11.79L162.23 9.77L162.23 9.77Q162.23 8.43 161.67 7.60L161.67 7.60L161.67 7.60Q161.10 6.78 159.96 6.78L159.96 6.78L159.96 6.78Q158.83 6.78 158.26 7.60L158.26 7.60L158.26 7.60Q157.70 8.43 157.70 9.77L157.70 9.77L157.70 11.79L157.70 11.79Q157.70 13.23 158.26 14.01L158.26 14.01L158.26 14.01Q158.83 14.78 159.96 14.78ZM174.62 5.88L177.45 15.18L177.62 15.18L177.62 5.88L178.79 5.88L178.79 15.68L176.44 15.68L173.61 6.38L173.45 6.38L173.45 15.68L172.27 15.68L172.27 5.88L174.62 5.88ZM188.03 15.68L188.03 5.88L189.21 5.88L189.21 14.59L194.33 14.59L194.33 15.68L188.03 15.68ZM206.08 15.68L206.08 12.24L205.83 12.24L202.76 5.88L204.08 5.88L206.58 11.23L206.75 11.23L209.26 5.88L210.57 5.88L207.51 12.24L207.26 12.24L207.26 15.68L206.08 15.68ZM234.70 6.97L234.70 5.88L240.91 5.88L240.91 6.97L238.39 6.97L238.39 14.59L240.91 14.59L240.91 15.68L234.70 15.68L234.70 14.59L237.22 14.59L237.22 6.97L234.70 6.97ZM250.42 15.68L250.42 5.88L256.44 5.88L256.44 6.97L251.59 6.97L251.59 10.22L256.35 10.22L256.35 11.31L251.59 11.31L251.59 15.68L250.42 15.68ZM283.92 15.68L283.92 12.24L283.67 12.24L280.60 5.88L281.92 5.88L284.42 11.23L284.59 11.23L287.10 5.88L288.41 5.88L285.35 12.24L285.10 12.24L285.10 15.68L283.92 15.68ZM296.63 11.87L296.63 9.69L296.63 9.69Q296.63 7.78 297.54 6.73L297.54 6.73L297.54 6.73Q298.45 5.68 300.08 5.68L300.08 5.68L300.08 5.68Q301.70 5.68 302.61 6.73L302.61 6.73L302.61 6.73Q303.52 7.78 303.52 9.69L303.52 9.69L303.52 11.87L303.52 11.87Q303.52 13.83 302.61 14.85L302.61 14.85L302.61 14.85Q301.70 15.88 300.08 15.88L300.08 15.88L300.08 15.88Q298.45 15.88 297.54 14.85L297.54 14.85L297.54 14.85Q296.63 13.83 296.63 11.87L296.63 11.87ZM300.08 14.78L300.08 14.78L300.08 14.78Q301.21 14.78 301.78 14.01L301.78 14.01L301.78 14.01Q302.34 13.23 302.34 11.79L302.34 11.79L302.34 9.77L302.34 9.77Q302.34 8.43 301.78 7.60L301.78 7.60L301.78 7.60Q301.21 6.78 300.08 6.78L300.08 6.78L300.08 6.78Q298.94 6.78 298.38 7.60L298.38 7.60L298.38 7.60Q297.81 8.43 297.81 9.77L297.81 9.77L297.81 11.79L297.81 11.79Q297.81 13.23 298.38 14.01L298.38 14.01L298.38 14.01Q298.94 14.78 300.08 14.78ZM312.28 5.88L313.46 5.88L313.46 12.38L313.46 12.38Q313.46 13.57 314.01 14.17L314.01 14.17L314.01 14.17Q314.57 14.78 315.64 14.78L315.64 14.78L315.64 14.78Q316.72 14.78 317.28 14.17L317.28 14.17L317.28 14.17Q317.83 13.57 317.83 12.38L317.83 12.38L317.83 5.88L319.00 5.88L319.00 12.38L319.00 12.38Q319.00 14.08 318.11 14.98L318.11 14.98L318.11 14.98Q317.21 15.88 315.64 15.88L315.64 15.88L315.64 15.88Q314.08 15.88 313.18 14.98L313.18 14.98L313.18 14.98Q312.28 14.08 312.28 12.38L312.28 12.38L312.28 5.88ZM350.91 5.88L349.92 15.68L347.77 15.68L346.86 6.38L346.70 6.38L345.79 15.68L343.64 15.68L342.65 5.88L343.71 5.88L344.65 15.18L344.82 15.18L345.70 5.88L347.86 5.88L348.74 15.18L348.91 15.18L349.85 5.88L350.91 5.88ZM365.16 15.68L364.45 13.24L360.25 13.24L359.53 15.68L358.27 15.68L361.24 5.88L363.45 5.88L366.42 15.68L365.16 15.68ZM362.43 6.38L362.26 6.38L360.57 12.15L364.13 12.15L362.43 6.38ZM377.01 5.88L379.83 15.18L380.00 15.18L380.00 5.88L381.18 5.88L381.18 15.68L378.83 15.68L376.00 6.38L375.83 6.38L375.83 15.68L374.65 15.68L374.65 5.88L377.01 5.88ZM390.04 6.97L390.04 5.88L396.93 5.88L396.93 6.97L394.07 6.97L394.07 15.68L392.90 15.68L392.90 6.97L390.04 6.97ZM421.18 6.97L421.18 5.88L428.06 5.88L428.06 6.97L425.21 6.97L425.21 15.68L424.03 15.68L424.03 6.97L421.18 6.97ZM436.93 15.68L436.93 5.88L438.10 5.88L438.10 10.22L442.27 10.22L442.27 5.88L443.45 5.88L443.45 15.68L442.27 15.68L442.27 11.31L438.10 11.31L438.10 15.68L436.93 15.68ZM452.79 15.68L452.79 5.88L458.72 5.88L458.72 6.97L453.96 6.97L453.96 10.22L458.64 10.22L458.64 11.31L453.96 11.31L453.96 14.59L458.81 14.59L458.81 15.68L452.79 15.68ZM483.41 15.68L483.41 14.59L484.25 14.59L484.25 6.97L483.41 6.97L483.41 5.88L487.37 5.88L487.37 5.88Q488.07 5.88 488.61 6.08L488.61 6.08L488.61 6.08Q489.15 6.27 489.52 6.61L489.52 6.61L489.52 6.61Q489.89 6.94 490.08 7.41L490.08 7.41L490.08 7.41Q490.27 7.88 490.27 8.43L490.27 8.43L490.27 8.60L490.27 8.60Q490.27 9.00 490.14 9.34L490.14 9.34L490.14 9.34Q490.01 9.67 489.79 9.94L489.79 9.94L489.79 9.94Q489.57 10.21 489.26 10.39L489.26 10.39L489.26 10.39Q488.96 10.58 488.61 10.68L488.61 10.68L488.61 10.85L488.61 10.85Q489.31 11.05 489.79 11.60L489.79 11.60L489.79 11.60Q490.27 12.15 490.27 12.95L490.27 12.95L490.27 13.12L490.27 13.12Q490.27 13.66 490.08 14.13L490.08 14.13L490.08 14.13Q489.89 14.60 489.52 14.95L489.52 14.95L489.52 14.95Q489.15 15.29 488.61 15.48L488.61 15.48L488.61 15.48Q488.07 15.68 487.37 15.68L487.37 15.68L483.41 15.68ZM485.42 11.31L485.42 14.59L487.28 14.59L487.28 14.59Q488.11 14.59 488.63 14.17L488.63 14.17L488.63 14.17Q489.15 13.76 489.15 13.03L489.15 13.03L489.15 12.95L489.15 12.95Q489.15 12.19 488.66 11.75L488.66 11.75L488.66 11.75Q488.17 11.31 487.33 11.31L487.33 11.31L485.42 11.31ZM485.42 6.97L485.42 10.22L487.33 10.22L487.33 10.22Q488.17 10.22 488.66 9.79L488.66 9.79L488.66 9.79Q489.15 9.35 489.15 8.60L489.15 8.60L489.15 8.51L489.15 8.51Q489.15 7.80 488.63 7.38L488.63 7.38L488.63 7.38Q488.11 6.97 487.28 6.97L487.28 6.97L485.42 6.97ZM499.49 15.68L499.49 5.88L505.43 5.88L505.43 6.97L500.67 6.97L500.67 10.22L505.34 10.22L505.34 11.31L500.67 11.31L500.67 14.59L505.51 14.59L505.51 15.68L499.49 15.68ZM520.34 9.21L520.34 8.71L520.34 8.71Q520.34 8.23 520.15 7.87L520.15 7.87L520.15 7.87Q519.96 7.50 519.64 7.27L519.64 7.27L519.64 7.27Q519.32 7.03 518.90 6.90L518.90 6.90L518.90 6.90Q518.48 6.78 518.01 6.78L518.01 6.78L518.01 6.78Q517.61 6.78 517.24 6.88L517.24 6.88L517.24 6.88Q516.88 6.99 516.59 7.18L516.59 7.18L516.59 7.18Q516.31 7.38 516.14 7.66L516.14 7.66L516.14 7.66Q515.97 7.95 515.97 8.33L515.97 8.33L515.97 8.41L515.97 8.41Q515.97 8.82 516.14 9.11L516.14 9.11L516.14 9.11Q516.31 9.39 516.63 9.60L516.63 9.60L516.63 9.60Q516.96 9.80 517.45 9.93L517.45 9.93L517.45 9.93Q517.94 10.07 518.60 10.16L518.60 10.16L518.60 10.16Q520.14 10.40 520.87 11.07L520.87 11.07L520.87 11.07Q521.60 11.73 521.60 12.85L521.60 12.85L521.60 13.02L521.60 13.02Q521.60 13.65 521.38 14.17L521.38 14.17L521.38 14.17Q521.16 14.70 520.74 15.08L520.74 15.08L520.74 15.08Q520.31 15.46 519.68 15.67L519.68 15.67L519.68 15.67Q519.05 15.88 518.22 15.88L518.22 15.88L518.22 15.88Q517.29 15.88 516.56 15.60L516.56 15.60L516.56 15.60Q515.84 15.33 515.36 14.85L515.36 14.85L515.36 14.85Q514.88 14.36 514.63 13.71L514.63 13.71L514.63 13.71Q514.37 13.06 514.37 12.29L514.37 12.29L514.37 11.87L515.55 11.87L515.55 12.21L515.55 12.21Q515.55 13.50 516.26 14.14L516.26 14.14L516.26 14.14Q516.96 14.78 518.22 14.78L518.22 14.78L518.22 14.78Q519.32 14.78 519.87 14.30L519.87 14.30L519.87 14.30Q520.42 13.82 520.42 13.02L520.42 13.02L520.42 12.94L520.42 12.94Q520.42 12.17 519.85 11.76L519.85 11.76L519.85 11.76Q519.29 11.35 518.01 11.17L518.01 11.17L518.01 11.17Q517.27 11.07 516.68 10.87L516.68 10.87L516.68 10.87Q516.08 10.67 515.66 10.34L515.66 10.34L515.66 10.34Q515.24 10.01 515.02 9.55L515.02 9.55L515.02 9.55Q514.79 9.09 514.79 8.46L514.79 8.46L514.79 8.29L514.79 8.29Q514.79 7.71 515.03 7.24L515.03 7.24L515.03 7.24Q515.27 6.76 515.70 6.41L515.70 6.41L515.70 6.41Q516.12 6.06 516.72 5.87L516.72 5.87L516.72 5.87Q517.31 5.68 518.03 5.68L518.03 5.68L518.03 5.68Q518.85 5.68 519.50 5.92L519.50 5.92L519.50 5.92Q520.16 6.16 520.60 6.56L520.60 6.56L520.60 6.56Q521.05 6.96 521.28 7.50L521.28 7.50L521.28 7.50Q521.51 8.04 521.51 8.62L521.51 8.62L521.51 9.21L520.34 9.21ZM530.15 6.97L530.15 5.88L537.04 5.88L537.04 6.97L534.18 6.97L534.18 15.68L533.01 15.68L533.01 6.97L530.15 6.97Z"></path></g></svg>