<svg data-v-423bf9ae="" xmlns="http://www.w3.org/2000/svg" viewBox="0 0 276.7590743434898 60" class="font"><!----><!----><!----><g data-v-423bf9ae="" id="1ca68a25-0b0f-4b22-bdfe-6681c17d48fb" fill="black" transform="matrix(4.264392416587725,0,0,4.264392416587725,-1.1513841272642935,-11.769723267532285)"><path d="M6.52 5.78L6.52 5.78Q6.30 5.66 6.22 5.38L6.22 5.38L6.22 5.38Q6.15 5.10 6.12 4.63L6.12 4.63L6.12 4.63Q6.06 4.02 5.96 3.79L5.96 3.79L5.96 3.79Q4.96 3.79 4.22 3.94L4.22 3.94L4.22 3.94Q3.49 4.09 3.11 4.63L3.11 4.63L3.11 4.63Q3.07 4.73 2.84 5.17L2.84 5.17L2.84 5.17Q2.62 5.61 2.48 6.08L2.48 6.08L2.48 6.08Q2.35 6.54 2.35 6.96L2.35 6.96L2.35 6.96Q2.35 7.67 2.30 9.07L2.30 9.07L2.30 9.07Q2.28 9.42 2.27 9.95L2.27 9.95L2.27 9.95Q2.25 10.47 2.25 11.17L2.25 11.17L2.25 11.17Q2.25 11.69 2.18 12.32L2.18 12.32L2.18 12.32Q2.13 13.08 2.13 13.45L2.13 13.45L2.13 13.45Q2.13 14.10 2.25 14.59L2.25 14.59L2.25 14.59Q2.37 15.02 2.64 15.27L2.64 15.27L2.64 15.27Q2.91 15.51 3.25 15.63L3.25 15.63L3.25 15.63Q3.60 15.75 4.20 15.88L4.20 15.88L4.20 15.88Q4.66 15.97 4.82 16.02L4.82 16.02L4.82 16.02Q5.46 15.92 5.75 15.49L5.75 15.49L5.75 15.49Q6.05 15.06 6.12 14.49L6.12 14.49L6.12 14.49Q6.19 13.92 6.19 12.96L6.19 12.96L6.19 12.96Q6.19 12.33 6.23 11.75L6.23 11.75L6.23 11.75Q6.12 11.62 5.96 11.62L5.96 11.62L5.96 11.62Q5.87 11.62 5.78 11.67L5.78 11.67L5.78 11.67Q5.68 11.72 5.67 11.75L5.67 11.75L5.67 11.75Q5.54 12.00 5.52 12.50L5.52 12.50L5.52 12.50Q5.47 12.91 5.40 13.13L5.40 13.13L5.40 13.13Q5.33 13.34 5.10 13.45L5.10 13.45L5.10 13.45Q4.98 13.45 4.92 13.40L4.92 13.40L4.92 13.40Q4.86 13.34 4.76 13.20L4.76 13.20L4.76 13.20Q4.65 13.01 4.54 12.89L4.54 12.89L4.54 12.89Q4.54 12.25 4.58 11.76L4.58 11.76L4.58 11.76Q4.63 11.27 4.82 10.91L4.82 10.91L4.82 10.91Q4.97 10.91 5.17 10.89L5.17 10.89L5.17 10.89Q5.38 10.86 5.47 10.86L5.47 10.86L5.47 10.86Q5.78 10.82 6.09 10.82L6.09 10.82L6.09 10.82Q6.75 10.82 7.10 11.17L7.10 11.17L7.10 11.17Q7.22 11.30 7.22 11.47L7.22 11.47L7.22 11.47Q7.22 11.55 7.17 11.75L7.17 11.75L7.17 11.75Q7.10 11.91 7.10 12.04L7.10 12.04L7.10 12.04Q7.10 12.57 7.14 13.10L7.14 13.10L7.14 13.10Q7.17 13.78 7.17 14.07L7.17 14.07L7.17 14.07Q7.17 15.20 6.80 15.72L6.80 15.72L6.80 15.72Q6.80 15.85 6.69 15.97L6.69 15.97L6.69 15.97Q6.57 16.10 6.33 16.28L6.33 16.28L6.33 16.28Q6.15 16.41 5.96 16.59L5.96 16.59L5.96 16.59Q5.49 16.81 4.70 16.81L4.70 16.81L4.70 16.81Q3.95 16.81 3.40 16.59L3.40 16.59L3.40 16.59Q2.72 16.31 2.33 16.05L2.33 16.05L2.33 16.05Q1.95 15.79 1.65 15.44L1.65 15.44L1.65 15.44Q1.36 15.08 0.84 14.31L0.84 14.31L0.84 14.31Q0.27 12.64 0.27 11.17L0.27 11.17L0.27 9.48L0.27 9.48Q0.27 9.07 0.32 8.67L0.32 8.67L0.32 8.67Q0.38 8.26 0.50 7.53L0.50 7.53L0.50 7.53Q0.52 7.48 0.59 7.10L0.59 7.10L0.59 7.10Q0.66 6.72 0.80 6.38L0.80 6.38L0.80 6.38Q0.90 6.16 1.05 5.64L1.05 5.64L1.05 5.64Q1.18 5.19 1.30 4.90L1.30 4.90L1.30 4.90Q1.43 4.61 1.68 4.35L1.68 4.35L1.68 4.35Q1.83 4.20 1.97 3.92L1.97 3.92L1.97 3.92Q2.11 3.64 2.25 3.50L2.25 3.50L2.25 3.50Q2.38 3.50 2.51 3.44L2.51 3.44L2.51 3.44Q2.65 3.37 2.72 3.31L2.72 3.31L2.72 3.31Q2.80 3.25 2.83 3.22L2.83 3.22L2.83 3.22Q3.21 3.02 3.58 2.97L3.58 2.97L3.58 2.97Q3.96 2.93 4.54 2.93L4.54 2.93L4.54 2.93Q4.61 2.93 4.68 2.91L4.68 2.91L4.68 2.91Q4.75 2.90 4.83 2.88L4.83 2.88L4.83 2.88Q5.17 2.80 5.40 2.80L5.40 2.80L5.40 2.80Q5.71 2.80 5.96 2.93L5.96 2.93L5.96 2.93Q6.19 2.93 6.50 3.12L6.50 3.12L6.50 3.12Q6.80 3.30 6.80 3.50L6.80 3.50L6.80 3.50Q6.93 3.88 6.93 4.30L6.93 4.30L6.93 4.30Q6.93 4.76 6.80 5.19L6.80 5.19L6.80 5.19Q6.68 5.61 6.52 5.78L6.52 5.78ZM13.80 9.02L13.80 9.02Q14.20 9.52 14.41 10.26L14.41 10.26L14.41 10.26Q14.62 11.00 14.71 11.78L14.71 11.78L14.71 11.78Q14.80 12.56 14.87 13.78L14.87 13.78L14.87 13.78Q14.95 15.19 15.04 15.82L15.04 15.82L15.04 15.82Q15.34 15.82 15.48 15.87L15.48 15.87L15.48 15.87Q15.62 15.92 15.62 16.11L15.62 16.11L15.62 16.11Q15.62 16.80 14.62 16.80L14.62 16.80L14.62 16.80Q14.32 16.80 13.54 16.70L13.54 16.70L13.54 16.70Q13.36 16.52 13.31 16.30L13.31 16.30L13.31 16.21L13.31 16.21Q13.31 16.11 13.40 15.72L13.40 15.72L13.40 15.72Q13.44 15.51 13.49 15.23L13.49 15.23L13.49 15.23Q13.54 14.94 13.54 14.63L13.54 14.63L13.54 14.63Q13.54 14.20 13.47 13.83L13.47 13.83L13.47 13.83Q13.40 13.38 13.40 12.70L13.40 12.70L13.40 12.70Q13.37 11.87 13.29 11.36L13.29 11.36L13.29 11.36Q13.20 10.85 12.88 10.40L12.88 10.40L12.71 10.15L12.71 10.15Q12.52 9.83 12.29 9.60L12.29 9.60L12.29 9.60Q12.29 9.48 12.23 9.41L12.23 9.41L12.23 9.41Q12.17 9.34 12.01 9.24L12.01 9.24L12.01 9.24Q11.82 9.13 11.69 9.02L11.69 9.02L11.69 9.02Q11.40 9.02 11.25 9.07L11.25 9.07L11.25 9.07Q11.10 9.11 11.10 9.30L11.10 9.30L11.10 9.30Q10.96 10.01 10.96 10.88L10.96 10.88L10.96 10.88Q10.96 11.48 11.05 12.54L11.05 12.54L11.05 12.54Q11.10 13.47 11.10 13.80L11.10 13.80L11.10 13.80Q11.10 14.42 11.15 14.82L11.15 14.82L11.15 14.82Q11.20 15.22 11.38 15.62L11.38 15.62L11.38 15.62Q11.38 15.72 11.46 15.79L11.46 15.79L11.46 15.79Q11.54 15.85 11.69 15.92L11.69 15.92L11.69 15.92Q11.83 15.99 11.91 16.04L11.91 16.04L11.91 16.04Q11.98 16.10 11.98 16.20L11.98 16.20L11.98 16.20Q11.98 16.25 11.98 16.42L11.98 16.42L11.98 16.42Q11.98 16.59 11.93 16.66L11.93 16.66L11.93 16.66Q11.87 16.73 11.73 16.73L11.73 16.73L11.73 16.73Q11.48 16.73 11.14 16.69L11.14 16.69L11.14 16.69Q11.02 16.69 10.74 16.67L10.74 16.67L10.74 16.67Q10.46 16.65 10.25 16.65L10.25 16.65L10.25 16.65Q9.62 16.65 9.30 16.81L9.30 16.81L9.30 16.81Q8.92 16.81 8.74 16.79L8.74 16.79L8.74 16.79Q8.55 16.76 8.40 16.63L8.40 16.63L8.40 16.63Q8.25 16.49 8.09 16.20L8.09 16.20L8.09 16.20Q8.30 16.02 8.50 15.97L8.50 15.97L8.50 15.97Q8.69 15.92 8.99 15.92L8.99 15.92L8.99 10.81L8.99 10.81Q8.99 10.67 9.02 10.48L9.02 10.48L9.02 10.48Q9.04 10.29 9.06 10.21L9.06 10.21L9.06 10.21Q9.13 9.88 9.13 9.62L9.13 9.62L9.13 9.62Q9.13 9.30 8.99 9.02L8.99 9.02L8.99 9.02Q8.99 8.82 9.03 8.65L9.03 8.65L9.03 8.65Q9.09 8.29 9.09 8.23L9.09 8.23L9.09 8.23Q9.11 7.76 9.11 7.55L9.11 7.55L9.11 7.55Q9.11 7.11 9.06 6.22L9.06 6.22L9.06 6.22Q9.04 6.05 9.02 5.54L9.02 5.54L9.02 5.54Q8.99 5.03 8.99 4.51L8.99 4.51L8.99 4.51Q8.51 4.51 8.20 4.40L8.20 4.40L8.20 4.40Q7.90 4.30 7.90 4.07L7.90 4.07L7.90 4.07Q7.90 3.64 8.03 3.45L8.03 3.45L8.03 3.45Q8.16 3.26 8.41 3.22L8.41 3.22L8.41 3.22Q8.65 3.18 9.20 3.18L9.20 3.18L9.20 3.18Q9.35 3.18 9.55 3.09L9.55 3.09L9.55 3.09Q9.72 3.01 9.87 3.01L9.87 3.01L9.87 3.01Q10.71 2.87 11.49 2.87L11.49 2.87L11.49 2.87Q12.73 2.87 13.60 3.25L13.60 3.25L13.60 3.25Q14.48 3.63 14.69 4.51L14.69 4.51L14.69 4.51Q14.87 5.24 14.87 5.85L14.87 5.85L14.87 5.85Q14.87 6.47 14.69 6.90L14.69 6.90L14.69 6.90Q14.57 7.18 14.32 7.52L14.32 7.52L14.32 7.52Q14.06 7.85 13.80 8.11L13.80 8.11L13.50 8.41L13.50 8.41Q13.50 8.58 13.65 8.71L13.65 8.71L13.65 8.71Q13.80 8.86 13.80 9.02L13.80 9.02ZM10.82 3.93L10.82 3.93Q10.82 5.31 10.93 7.63L10.93 7.63L10.93 7.63Q10.93 7.78 11.17 7.78L11.17 7.78L11.17 7.78Q11.47 7.78 11.94 7.59L11.94 7.59L11.94 7.59Q12.42 7.39 12.60 7.21L12.60 7.21L12.60 7.21Q12.60 7.04 12.74 6.57L12.74 6.57L12.74 6.57Q12.85 6.22 12.88 6.02L12.88 6.02L12.88 6.02Q12.94 5.73 12.94 5.54L12.94 5.54L12.94 5.54Q12.94 5.40 12.91 5.22L12.91 5.22L12.91 5.22Q12.88 5.04 12.88 4.82L12.88 4.82L12.88 4.82Q12.88 4.56 12.77 4.40L12.77 4.40L12.77 4.40Q12.66 4.24 12.50 4.10L12.50 4.10L12.50 4.10Q12.35 3.96 12.29 3.91L12.29 3.91L10.82 3.93ZM27.78 3.37L27.78 3.37Q27.78 3.29 27.83 3.18L27.83 3.18L27.83 3.18Q27.89 3.07 28.08 3.07L28.08 3.07L28.08 3.07Q28.38 3.07 28.52 3.12L28.52 3.12L28.52 3.12Q28.66 3.16 28.66 3.37L28.66 3.37L28.66 3.37Q28.80 3.51 28.80 3.74L28.80 3.74L28.80 3.74Q28.80 3.91 28.71 4.21L28.71 4.21L28.71 4.21Q28.66 4.47 28.66 4.54L28.66 4.54L28.66 4.54Q28.62 4.63 28.46 5.01L28.46 5.01L28.46 5.01Q28.29 5.38 28.11 5.59L28.11 5.59L28.11 5.59Q27.92 5.80 27.71 5.80L27.71 5.80L27.71 5.80Q27.58 5.80 27.47 5.74L27.47 5.74L27.47 5.74Q27.34 5.61 27.34 5.36L27.34 5.36L27.34 5.36Q27.34 5.24 27.40 4.87L27.40 4.87L27.40 4.87Q27.47 4.38 27.47 4.26L27.47 4.26L27.47 4.26Q27.24 4.02 26.82 3.84L26.82 3.84L26.82 3.84Q26.40 3.65 25.98 3.65L25.98 3.65L25.98 3.65Q25.76 4.09 25.76 5.00L25.76 5.00L25.76 5.00Q25.76 5.91 25.98 6.36L25.98 6.36L25.98 6.36Q26.17 6.73 26.50 7.02L26.50 7.02L26.50 7.02Q26.82 7.31 27.40 7.70L27.40 7.70L27.40 7.70Q28.03 8.13 28.42 8.48L28.42 8.48L28.42 8.48Q28.81 8.82 29.09 9.31L29.09 9.31L29.09 9.31Q29.44 9.91 29.67 10.37L29.67 10.37L29.67 10.37Q29.89 10.81 30.00 11.33L30.00 11.33L30.00 11.33Q30.11 11.84 30.11 12.33L30.11 12.33L30.11 12.33Q30.11 13.17 29.98 13.76L29.98 13.76L29.98 13.76Q29.85 14.34 29.55 14.99L29.55 14.99L29.55 14.99Q29.22 15.72 28.66 16.14L28.66 16.14L28.66 16.14Q28.10 16.55 27.19 16.77L27.19 16.77L25.98 16.77L25.98 16.77Q25.61 16.77 25.08 16.37L25.08 16.37L25.08 16.37Q24.56 15.96 24.21 15.58L24.21 15.58L24.21 15.58Q23.77 14.77 23.77 13.87L23.77 13.87L23.77 13.87Q23.77 13.44 23.90 12.91L23.90 12.91L23.90 12.91Q23.74 12.91 23.59 13.06L23.59 13.06L23.59 13.06Q23.46 13.22 23.31 13.22L23.31 13.22L23.31 13.22Q23.10 13.01 23.05 12.80L23.05 12.80L23.05 12.80Q23.00 12.60 23.00 12.32L23.00 12.32L23.00 12.32Q23.48 12.15 24.11 12.05L24.11 12.05L24.11 12.05Q24.42 12.00 24.75 11.91L24.75 11.91L24.75 11.91Q25.09 11.83 25.40 11.70L25.40 11.70L25.40 11.70Q25.72 11.70 25.91 11.91L25.91 11.91L25.91 11.91Q26.11 12.12 26.11 12.43L26.11 12.43L26.11 12.43Q26.11 12.67 25.98 12.91L25.98 12.91L25.98 12.91Q25.69 12.91 25.49 12.96L25.49 12.96L25.49 12.96Q25.30 13.01 25.09 13.22L25.09 13.22L25.09 13.22Q24.78 13.52 24.78 14.17L24.78 14.17L24.78 14.17Q24.78 14.73 25.03 15.24L25.03 15.24L25.03 15.24Q25.27 15.75 25.68 15.89L25.68 15.89L25.68 15.89Q25.86 15.89 25.98 15.74L25.98 15.74L25.98 15.74Q26.00 15.72 26.08 15.65L26.08 15.65L26.08 15.65Q26.17 15.58 26.29 15.58L26.29 15.58L26.29 15.58Q27.27 15.09 27.78 14.05L27.78 14.05L27.78 14.05Q28.29 13.01 28.29 11.68L28.29 11.68L28.29 11.68Q28.29 10.81 28.08 9.93L28.08 9.93L28.08 9.93Q27.85 9.48 27.59 9.22L27.59 9.22L27.59 9.22Q27.33 8.96 26.88 8.72L26.88 8.72L26.88 8.72Q26.47 8.53 26.22 8.32L26.22 8.32L26.22 8.32Q25.97 8.12 25.68 7.83L25.68 7.83L25.68 7.83Q25.54 7.69 25.30 7.55L25.30 7.55L25.30 7.55Q24.93 7.34 24.68 7.07L24.68 7.07L24.68 7.07Q24.60 6.97 24.28 6.65L24.28 6.65L24.28 6.65Q23.95 6.33 23.77 6.03L23.77 6.03L23.77 6.03Q23.59 5.73 23.59 5.46L23.59 5.46L23.59 5.46Q23.52 5.25 23.52 4.97L23.52 4.97L23.52 4.97Q23.52 4.03 24.49 3.07L24.49 3.07L24.49 3.07Q24.60 3.07 24.72 3.02L24.72 3.02L24.72 3.02Q24.85 2.97 24.89 2.95L24.89 2.95L24.89 2.95Q25.28 2.76 25.68 2.76L25.68 2.76L25.68 2.76Q25.94 2.76 26.12 2.79L26.12 2.79L26.12 2.79Q26.31 2.83 26.57 2.91L26.57 2.91L27.19 3.07L27.19 3.07Q27.22 3.09 27.30 3.16L27.30 3.16L27.30 3.16Q27.38 3.23 27.51 3.30L27.51 3.30L27.51 3.30Q27.64 3.37 27.78 3.37L27.78 3.37ZM33.63 15.72L33.63 15.72Q34.12 15.72 34.43 15.84L34.43 15.84L34.43 15.84Q34.73 15.96 34.73 16.18L34.73 16.18L34.73 16.18Q34.73 16.37 34.51 16.60L34.51 16.60L34.51 16.60Q34.15 16.60 33.12 16.67L33.12 16.67L33.12 16.67Q32.40 16.73 32.09 16.73L32.09 16.73L32.09 16.73Q31.49 16.73 30.98 16.60L30.98 16.60L30.98 16.60Q30.95 16.58 30.88 16.49L30.88 16.49L30.88 16.49Q30.81 16.41 30.74 16.28L30.74 16.28L30.74 16.28Q30.67 16.16 30.67 16.02L30.67 16.02L30.67 16.02Q30.90 15.79 31.01 15.76L31.01 15.76L31.01 15.76Q31.12 15.72 31.56 15.72L31.56 15.72L31.56 15.72Q31.72 15.57 31.72 15.16L31.72 15.16L31.72 15.16Q31.72 15.01 31.70 14.70L31.70 14.70L31.70 14.70Q31.67 14.42 31.67 14.31L31.67 14.31L31.67 13.87L31.67 13.87Q31.67 12.56 31.71 11.45L31.71 11.45L31.71 11.45Q31.74 10.14 31.74 9.51L31.74 9.51L31.74 9.51Q31.74 9.14 31.75 8.95L31.75 8.95L31.77 8.12L31.77 8.12Q31.77 7.56 31.74 7.25L31.74 7.25L31.74 7.25Q31.71 6.89 31.71 6.78L31.71 6.78L31.71 6.72L31.71 6.72Q31.71 6.43 31.72 6.24L31.72 6.24L31.72 6.24Q31.75 5.61 31.74 5.03L31.74 5.03L31.75 4.58L31.75 4.58Q31.75 4.38 31.71 4.26L31.71 4.26L31.71 4.26Q31.67 4.14 31.54 4.10L31.54 4.10L31.54 4.10Q31.39 4.03 31.16 4.03L31.16 4.03L31.16 4.03Q31.01 4.02 30.92 3.99L30.92 3.99L30.92 3.99Q30.83 3.96 30.70 3.85L30.70 3.85L30.70 3.85Q30.42 3.70 30.42 3.54L30.42 3.54L30.42 3.54Q30.42 3.44 30.51 3.35L30.51 3.35L30.51 3.35Q30.59 3.25 30.71 3.14L30.71 3.14L30.71 3.14Q30.83 3.04 30.90 2.98L30.90 2.98L30.90 2.98Q31.98 2.79 33.57 2.79L33.57 2.79L35.08 2.80L35.08 2.80Q35.20 2.80 35.27 2.79L35.27 2.79L35.27 2.79Q35.35 2.77 35.41 2.77L35.41 2.77L35.41 2.77Q35.55 2.77 35.69 2.80L35.69 2.80L35.69 2.80Q36.50 2.93 37.14 3.88L37.14 3.88L37.14 3.88Q37.79 4.84 38.02 6.03L38.02 6.03L38.02 6.03Q38.02 6.92 37.98 7.45L37.98 7.45L37.98 7.45Q37.93 7.98 37.73 8.39L37.73 8.39L37.73 8.39Q37.58 8.85 37.25 9.23L37.25 9.23L37.25 9.23Q36.92 9.60 36.39 10.05L36.39 10.05L36.39 10.05Q35.97 10.43 35.97 10.43L35.97 10.43L35.97 10.43Q35.56 10.64 35.15 10.69L35.15 10.69L35.15 10.69Q34.73 10.74 33.92 10.74L33.92 10.74L33.92 10.74Q33.89 10.74 33.83 10.75L33.83 10.75L33.83 10.75Q33.77 10.77 33.70 10.84L33.70 10.84L33.70 10.84Q33.63 10.91 33.63 11.03L33.63 11.03L33.63 11.03Q33.61 11.16 33.62 11.44L33.62 11.44L33.62 11.44Q33.63 11.72 33.63 11.87L33.63 11.87L33.63 12.19L33.63 12.19Q33.63 12.71 33.56 13.37L33.56 13.37L33.56 13.37Q33.54 13.52 33.52 13.89L33.52 13.89L33.52 13.89Q33.49 14.25 33.49 14.55L33.49 14.55L33.49 14.55Q33.49 15.16 33.63 15.72L33.63 15.72ZM33.63 8.09L33.63 9.55L33.63 9.55Q33.75 9.69 33.95 9.76L33.95 9.76L33.95 9.76Q34.15 9.83 34.36 9.83L34.36 9.83L34.36 9.83Q34.59 9.83 34.76 9.73L34.76 9.73L34.76 9.73Q35.18 9.46 35.52 9.01L35.52 9.01L35.52 9.01Q35.85 8.55 35.97 8.09L35.97 8.09L35.97 8.09Q35.99 7.95 36.07 7.67L36.07 7.67L36.07 7.67Q36.15 7.38 36.16 7.09L36.16 7.09L36.16 7.09Q36.18 6.80 36.18 6.38L36.18 6.38L36.18 6.38Q36.18 5.74 36.04 5.09L36.04 5.09L36.04 5.09Q35.90 4.44 35.69 3.99L35.69 3.99L35.69 3.99Q35.57 3.99 35.45 3.94L35.45 3.94L35.45 3.94Q35.32 3.89 35.28 3.88L35.28 3.88L35.28 3.88Q34.89 3.68 34.51 3.68L34.51 3.68L33.63 3.68L33.63 3.68Q33.49 4.38 33.49 5.15L33.49 5.15L33.49 5.15Q33.49 5.53 33.52 5.99L33.52 5.99L33.52 5.99Q33.54 6.45 33.56 6.64L33.56 6.64L33.56 6.64Q33.63 7.45 33.63 8.09L33.63 8.09ZM41.43 3.85L41.43 3.85Q41.30 4.19 41.30 4.66L41.30 4.66L41.30 4.66Q41.30 5.04 41.37 5.50L41.37 5.50L41.37 5.50Q41.38 5.60 41.41 5.90L41.41 5.90L41.41 5.90Q41.44 6.20 41.43 6.44L41.43 6.44L41.43 6.44Q41.40 7.29 41.31 9.17L41.31 9.17L41.31 9.17Q41.24 10.77 41.19 12.49L41.19 12.49L41.19 12.49Q41.13 14.21 41.13 15.65L41.13 15.65L41.13 15.65Q41.27 15.79 41.58 15.95L41.58 15.95L41.58 15.95Q41.86 16.09 41.99 16.21L41.99 16.21L41.99 16.21Q41.99 16.34 41.93 16.40L41.93 16.40L41.93 16.40Q41.87 16.46 41.73 16.56L41.73 16.56L41.73 16.56Q41.57 16.66 41.43 16.80L41.43 16.80L41.43 16.80Q41.27 16.73 40.89 16.67L40.89 16.67L40.89 16.67Q40.70 16.66 40.24 16.66L40.24 16.66L40.24 16.66Q39.76 16.66 39.45 16.63L39.45 16.63L39.45 16.63Q39.13 16.60 38.84 16.51L38.84 16.51L38.84 16.51Q38.81 16.49 38.76 16.41L38.76 16.41L38.76 16.41Q38.71 16.32 38.71 16.21L38.71 16.21L38.71 16.21Q38.71 16.06 38.84 15.95L38.84 15.95L38.84 15.95Q38.84 15.85 38.88 15.83L38.88 15.83L38.88 15.83Q38.92 15.81 39.02 15.81L39.02 15.81L39.02 15.81Q39.14 15.81 39.20 15.79L39.20 15.79L39.20 15.79Q39.34 15.74 39.40 15.65L39.40 15.65L39.40 15.65Q39.52 15.53 39.52 15.29L39.52 15.29L39.52 15.29Q39.52 15.18 39.49 15.03L39.49 15.03L39.49 15.03Q39.47 14.88 39.45 14.83L39.45 14.83L39.45 14.83Q39.40 14.57 39.40 14.50L39.40 14.50L39.40 14.50Q39.40 14.07 39.42 13.23L39.42 13.23L39.44 12.00L39.44 12.00Q39.42 11.93 39.41 11.74L39.41 11.74L39.41 11.74Q39.40 11.55 39.40 11.33L39.40 11.33L39.40 8.74L39.40 3.85L39.40 3.85Q39.13 3.85 38.98 3.80L38.98 3.80L38.98 3.80Q38.84 3.75 38.84 3.56L38.84 3.56L38.84 2.98L38.84 2.98Q38.84 2.86 38.93 2.86L38.93 2.86L38.93 2.86Q38.98 2.86 39.21 2.92L39.21 2.92L39.21 2.92Q39.45 2.98 39.69 2.98L39.69 2.98L39.69 2.98Q39.84 2.98 40.35 2.93L40.35 2.93L40.35 2.93Q40.46 2.91 40.75 2.88L40.75 2.88L40.75 2.88Q41.05 2.86 41.27 2.86L41.27 2.86L41.27 2.86Q41.75 2.86 41.99 2.98L41.99 2.98L41.99 2.98Q42.10 3.09 42.10 3.26L42.10 3.26L42.10 3.26Q42.10 3.49 41.91 3.67L41.91 3.67L41.91 3.67Q41.72 3.85 41.43 3.85L41.43 3.85ZM49.88 3.67L49.88 3.67Q49.88 3.77 49.93 3.83L49.93 3.83L49.93 3.83Q49.98 3.89 50.04 3.95L50.04 3.95L50.04 3.95Q50.19 4.07 50.19 4.23L50.19 4.23L50.19 4.23Q50.19 4.89 50.13 5.29L50.13 5.29L50.13 5.29Q50.08 5.68 49.88 5.68L49.88 5.68L49.88 5.68Q49.64 5.68 49.57 5.49L49.57 5.49L49.57 5.49Q49.50 5.29 49.46 4.87L49.46 4.87L49.46 4.87Q49.43 4.35 49.31 4.23L49.31 4.23L49.31 4.23Q48.66 4.02 48.03 4.02L48.03 4.02L48.03 4.02Q47.42 4.02 46.98 4.23L46.98 4.23L46.98 4.23Q46.80 4.41 46.54 4.97L46.54 4.97L46.54 4.97Q46.28 5.50 46.10 5.68L46.10 5.68L46.10 5.68Q46.10 5.75 46.05 5.92L46.05 5.92L46.05 5.92Q45.99 6.09 45.82 6.27L45.82 6.27L45.82 6.27Q45.61 7.07 45.56 7.76L45.56 7.76L45.56 7.76Q45.51 8.46 45.51 9.77L45.51 9.77L45.51 11.51L45.51 11.51Q46.16 15.16 47.56 15.89L47.56 15.89L47.56 15.89Q47.78 16.00 48.06 16.00L48.06 16.00L48.06 16.00Q48.34 16.00 48.64 15.90L48.64 15.90L48.64 15.90Q48.93 15.79 49.31 15.58L49.31 15.58L49.31 15.58Q49.42 15.37 49.43 15.11L49.43 15.11L49.43 15.11Q49.45 14.94 49.45 14.56L49.45 14.56L49.45 14.56Q49.45 14.20 49.47 13.96L49.47 13.96L49.47 13.96Q49.49 13.73 49.59 13.54L49.59 13.54L49.59 13.54Q49.83 13.54 49.95 13.59L49.95 13.59L49.95 13.59Q50.08 13.64 50.20 13.73L50.20 13.73L50.20 13.73Q50.22 13.75 50.30 13.80L50.30 13.80L50.30 13.80Q50.37 13.85 50.47 13.85L50.47 13.85L50.47 15.89L50.47 15.89Q50.08 16.83 48.48 16.83L48.48 16.83L48.48 16.83Q47.88 16.83 47.27 16.73L47.27 16.73L47.27 16.73Q46.66 16.63 45.82 16.45L45.82 16.45L45.82 16.45Q45.47 16.13 45.29 15.99L45.29 15.99L45.29 15.99Q44.88 15.67 44.61 15.39L44.61 15.39L44.61 15.39Q44.34 15.12 44.07 14.70L44.07 14.70L44.07 14.70Q43.93 14.04 43.78 13.47L43.78 13.47L43.78 13.47Q43.48 12.28 43.34 11.45L43.34 11.45L43.34 11.45Q43.19 10.61 43.19 9.77L43.19 9.77L43.19 9.77Q43.27 9.32 43.41 8.43L43.41 8.43L43.41 8.43Q43.58 7.39 43.72 6.71L43.72 6.71L43.72 6.71Q43.86 6.03 44.07 5.40L44.07 5.40L44.07 5.40Q44.18 5.28 44.32 5.00L44.32 5.00L44.32 5.00Q44.42 4.70 44.63 4.52L44.63 4.52L44.63 4.52Q45.14 3.81 45.98 3.30L45.98 3.30L45.98 3.30Q46.83 2.79 47.84 2.79L47.84 2.79L47.84 2.79Q48.20 2.90 48.45 2.95L48.45 2.95L48.45 2.95Q49.00 3.11 49.29 3.24L49.29 3.24L49.29 3.24Q49.59 3.37 49.88 3.67L49.88 3.67ZM57.02 5.08L57.02 5.08Q56.95 4.98 56.90 4.82L56.90 4.82L56.90 4.82Q56.88 4.72 56.88 4.51L56.88 4.51L56.88 4.51Q56.88 4.28 56.85 4.16L56.85 4.16L56.85 4.16Q56.83 4.03 56.73 3.95L56.73 3.95L56.73 3.95Q56.45 3.79 56.15 3.65L56.15 3.65L56.15 3.65Q55.51 3.65 55.03 3.70L55.03 3.70L55.03 3.70Q54.54 3.75 54.17 3.95L54.17 3.95L54.17 3.95Q54.01 4.09 53.96 4.30L53.96 4.30L53.96 4.30Q53.91 4.52 53.91 4.90L53.91 4.90L53.91 4.90Q53.91 5.56 53.89 6.26L53.89 6.26L53.87 7.07L53.87 7.07Q53.87 7.28 53.94 7.91L53.94 7.91L53.94 7.91Q54.00 8.33 54.00 8.50L54.00 8.50L54.00 8.50Q54.00 8.83 53.87 9.09L53.87 9.09L53.87 9.09Q54.07 9.25 54.51 9.30L54.51 9.30L54.51 9.30Q54.95 9.35 55.58 9.35L55.58 9.35L55.58 9.35Q55.58 9.00 55.63 8.76L55.63 8.76L55.63 8.76Q55.68 8.51 55.87 8.51L55.87 8.51L55.87 8.51Q56.08 8.51 56.15 8.55L56.15 8.55L56.15 8.55Q56.22 8.58 56.45 8.79L56.45 8.79L56.45 8.79Q56.38 8.93 56.38 9.10L56.38 9.10L56.38 9.10Q56.36 9.17 56.36 9.34L56.36 9.34L56.36 9.34Q56.36 9.63 56.41 9.95L56.41 9.95L56.41 9.95Q56.43 10.35 56.43 10.51L56.43 10.51L56.43 10.51Q56.43 10.79 56.37 10.94L56.37 10.94L56.37 10.94Q56.31 11.09 56.15 11.09L56.15 11.09L56.15 11.09Q56.11 11.06 55.97 10.98L55.97 10.98L55.97 10.98Q55.83 10.89 55.71 10.77L55.71 10.77L55.71 10.77Q55.58 10.64 55.58 10.51L55.58 10.51L55.58 10.22L54.17 10.22L54.17 10.22Q54.01 10.67 54.01 11.41L54.01 11.41L54.01 11.41Q54.01 11.89 54.05 12.35L54.05 12.35L54.05 12.35Q54.08 12.91 54.08 13.12L54.08 13.12L54.08 13.12Q54.08 13.17 54.12 14.64L54.12 14.64L54.12 14.64Q54.17 15.26 54.17 15.65L54.17 15.65L54.17 15.65Q54.74 15.85 55.20 15.89L55.20 15.89L55.20 15.89Q55.65 15.93 56.45 15.93L56.45 15.93L56.45 15.93Q56.66 15.83 56.70 15.64L56.70 15.64L56.70 15.64Q56.74 15.51 56.74 15.23L56.74 15.23L56.74 15.23Q56.74 14.94 56.79 14.78L56.79 14.78L56.79 14.78Q56.84 14.62 57.02 14.52L57.02 14.52L57.02 14.52Q57.40 14.52 57.50 14.90L57.50 14.90L57.50 14.90Q57.60 15.29 57.60 15.93L57.60 15.93L57.60 15.93Q57.60 16.13 57.46 16.30L57.46 16.30L57.46 16.30Q57.33 16.48 57.02 16.80L57.02 16.80L55.58 16.80L55.58 16.80Q54.15 16.80 53.15 16.75L53.15 16.75L53.15 16.75Q52.15 16.70 51.02 16.51L51.02 16.51L51.02 15.93L52.16 15.93L52.16 15.93Q52.29 15.19 52.29 14.31L52.29 14.31L52.29 14.31Q52.29 13.82 52.23 12.78L52.23 12.78L52.23 12.78Q52.16 11.87 52.16 11.09L52.16 11.09L52.16 10.51L52.16 7.64L52.16 6.51L52.16 3.95L51.02 3.95L51.02 3.37L51.02 3.37Q51.60 3.22 52.78 3.08L52.78 3.08L52.78 3.08Q53.90 2.94 54.45 2.80L54.45 2.80L57.30 2.80L57.30 2.80Q57.33 2.83 57.40 2.91L57.40 2.91L57.40 2.91Q57.47 2.98 57.53 3.12L57.53 3.12L57.53 3.12Q57.60 3.25 57.60 3.37L57.60 3.37L57.60 3.37Q57.60 3.54 57.67 3.85L57.67 3.85L57.67 3.85Q57.74 4.34 57.74 4.44L57.74 4.44L57.74 4.44Q57.74 4.75 57.58 4.91L57.58 4.91L57.58 4.91Q57.43 5.08 57.02 5.08L57.02 5.08ZM62.83 3.37L62.83 3.37Q62.83 3.29 62.89 3.18L62.89 3.18L62.89 3.18Q62.94 3.07 63.14 3.07L63.14 3.07L63.14 3.07Q63.43 3.07 63.57 3.12L63.57 3.12L63.57 3.12Q63.71 3.16 63.71 3.37L63.71 3.37L63.71 3.37Q63.85 3.51 63.85 3.74L63.85 3.74L63.85 3.74Q63.85 3.91 63.77 4.21L63.77 4.21L63.77 4.21Q63.71 4.47 63.71 4.54L63.71 4.54L63.71 4.54Q63.67 4.63 63.51 5.01L63.51 5.01L63.51 5.01Q63.35 5.38 63.16 5.59L63.16 5.59L63.16 5.59Q62.97 5.80 62.76 5.80L62.76 5.80L62.76 5.80Q62.64 5.80 62.52 5.74L62.52 5.74L62.52 5.74Q62.40 5.61 62.40 5.36L62.40 5.36L62.40 5.36Q62.40 5.24 62.45 4.87L62.45 4.87L62.45 4.87Q62.52 4.38 62.52 4.26L62.52 4.26L62.52 4.26Q62.30 4.02 61.88 3.84L61.88 3.84L61.88 3.84Q61.46 3.65 61.04 3.65L61.04 3.65L61.04 3.65Q60.82 4.09 60.82 5.00L60.82 5.00L60.82 5.00Q60.82 5.91 61.04 6.36L61.04 6.36L61.04 6.36Q61.22 6.73 61.55 7.02L61.55 7.02L61.55 7.02Q61.88 7.31 62.45 7.70L62.45 7.70L62.45 7.70Q63.08 8.13 63.48 8.48L63.48 8.48L63.48 8.48Q63.87 8.82 64.15 9.31L64.15 9.31L64.15 9.31Q64.50 9.91 64.72 10.37L64.72 10.37L64.72 10.37Q64.95 10.81 65.06 11.33L65.06 11.33L65.06 11.33Q65.17 11.84 65.17 12.33L65.17 12.33L65.17 12.33Q65.17 13.17 65.04 13.76L65.04 13.76L65.04 13.76Q64.90 14.34 64.61 14.99L64.61 14.99L64.61 14.99Q64.27 15.72 63.71 16.14L63.71 16.14L63.71 16.14Q63.15 16.55 62.24 16.77L62.24 16.77L61.04 16.77L61.04 16.77Q60.66 16.77 60.14 16.37L60.14 16.37L60.14 16.37Q59.61 15.96 59.26 15.58L59.26 15.58L59.26 15.58Q58.83 14.77 58.83 13.87L58.83 13.87L58.83 13.87Q58.83 13.44 58.95 12.91L58.95 12.91L58.95 12.91Q58.80 12.91 58.65 13.06L58.65 13.06L58.65 13.06Q58.52 13.22 58.37 13.22L58.37 13.22L58.37 13.22Q58.16 13.01 58.11 12.80L58.11 12.80L58.11 12.80Q58.06 12.60 58.06 12.32L58.06 12.32L58.06 12.32Q58.53 12.15 59.16 12.05L59.16 12.05L59.16 12.05Q59.47 12.00 59.81 11.91L59.81 11.91L59.81 11.91Q60.14 11.83 60.45 11.70L60.45 11.70L60.45 11.70Q60.77 11.70 60.97 11.91L60.97 11.91L60.97 11.91Q61.17 12.12 61.17 12.43L61.17 12.43L61.17 12.43Q61.17 12.67 61.04 12.91L61.04 12.91L61.04 12.91Q60.75 12.91 60.55 12.96L60.55 12.96L60.55 12.96Q60.35 13.01 60.14 13.22L60.14 13.22L60.14 13.22Q59.84 13.52 59.84 14.17L59.84 14.17L59.84 14.17Q59.84 14.73 60.08 15.24L60.08 15.24L60.08 15.24Q60.33 15.75 60.73 15.89L60.73 15.89L60.73 15.89Q60.91 15.89 61.04 15.74L61.04 15.74L61.04 15.74Q61.05 15.72 61.14 15.65L61.14 15.65L61.14 15.65Q61.22 15.58 61.35 15.58L61.35 15.58L61.35 15.58Q62.33 15.09 62.84 14.05L62.84 14.05L62.84 14.05Q63.35 13.01 63.35 11.68L63.35 11.68L63.35 11.68Q63.35 10.81 63.14 9.93L63.14 9.93L63.14 9.93Q62.90 9.48 62.64 9.22L62.64 9.22L62.64 9.22Q62.38 8.96 61.94 8.72L61.94 8.72L61.94 8.72Q61.53 8.53 61.28 8.32L61.28 8.32L61.28 8.32Q61.03 8.12 60.73 7.83L60.73 7.83L60.73 7.83Q60.59 7.69 60.35 7.55L60.35 7.55L60.35 7.55Q59.99 7.34 59.74 7.07L59.74 7.07L59.74 7.07Q59.65 6.97 59.33 6.65L59.33 6.65L59.33 6.65Q59.01 6.33 58.83 6.03L58.83 6.03L58.83 6.03Q58.65 5.73 58.65 5.46L58.65 5.46L58.65 5.46Q58.58 5.25 58.58 4.97L58.58 4.97L58.58 4.97Q58.58 4.03 59.54 3.07L59.54 3.07L59.54 3.07Q59.65 3.07 59.78 3.02L59.78 3.02L59.78 3.02Q59.91 2.97 59.95 2.95L59.95 2.95L59.95 2.95Q60.34 2.76 60.73 2.76L60.73 2.76L60.73 2.76Q61.00 2.76 61.18 2.79L61.18 2.79L61.18 2.79Q61.36 2.83 61.63 2.91L61.63 2.91L62.24 3.07L62.24 3.07Q62.27 3.09 62.36 3.16L62.36 3.16L62.36 3.16Q62.44 3.23 62.57 3.30L62.57 3.30L62.57 3.30Q62.69 3.37 62.83 3.37L62.83 3.37Z"></path></g><!----><!----></svg>